<svg width="205" height="205" viewBox="0 0 205 205" fill="none" xmlns="http://www.w3.org/2000/svg">
<g filter="url(#filter0_d)">
<g filter="url(#filter1_d)">
<path d="M102.14 196.839C156.341 196.839 200.28 152.9 200.28 98.6991C200.28 44.4979 156.341 0.559143 102.14 0.559143C47.9388 0.559143 4 44.4979 4 98.6991C4 152.9 47.9388 196.839 102.14 196.839Z" fill="#D15327"/>
</g>
<g filter="url(#filter2_d)">
<path d="M102.141 27.1069C83.0228 27.1069 65.039 34.5573 51.5084 48.0879C37.9778 61.6186 30.5273 79.6023 30.5273 98.7208C30.5273 117.839 37.9778 135.823 51.5084 149.354C65.039 162.884 83.0228 170.335 102.141 170.335C121.26 170.335 139.243 162.884 152.774 149.354C166.305 135.823 173.755 117.839 173.755 98.7208C173.755 79.6023 166.305 61.6186 152.774 48.0879C139.243 34.5573 121.26 27.1069 102.141 27.1069ZM102.141 168.793C63.4762 168.793 32.0474 137.343 32.0474 98.6994C32.0474 60.0557 63.4762 28.6055 102.141 28.6055C140.806 28.6055 172.235 60.0343 172.235 98.6994C172.235 137.364 140.806 168.793 102.141 168.793Z" fill="white"/>
<path d="M121.817 144.9L111.733 144.943L111.434 145.243C111.048 145.628 111.048 146.292 111.434 146.677L111.733 146.977L120.276 146.934L128.818 146.892L128.133 147.941C127.041 149.61 126.099 151.794 125.714 153.55C125.585 154.149 125.499 154.321 125.328 154.256C125.221 154.213 124.686 154.021 124.172 153.807C123.251 153.443 123.166 153.421 120.661 153.421C118.113 153.421 118.07 153.421 117.728 153.742C117.492 153.957 117.385 154.213 117.385 154.492C117.385 154.941 117.835 155.626 118.113 155.626C118.22 155.626 118.777 155.862 119.376 156.162C120.661 156.804 121.667 157.81 122.395 159.202C122.716 159.823 123.102 160.829 123.251 161.364C123.915 161.15 124.557 160.915 125.2 160.679C125.157 160.572 125.135 160.444 125.093 160.315C124.793 159.073 123.894 157.468 122.888 156.376C122.331 155.776 122.031 155.37 122.16 155.37C122.566 155.37 124.557 156.162 125.221 156.59C126.035 157.104 127.191 158.367 127.662 159.266C127.747 159.416 127.812 159.544 127.854 159.63C128.497 159.352 129.16 159.073 129.803 158.774C129.674 158.602 129.524 158.388 129.375 158.11C129.053 157.553 128.454 156.74 128.047 156.29C127.341 155.519 127.319 155.455 127.405 154.92C127.533 154.106 128.09 152.501 128.668 151.28L129.16 150.231V152.693C129.16 155.263 129.246 155.905 129.846 157.832C129.931 158.131 130.017 158.431 130.06 158.645C130.702 158.345 131.344 158.046 131.986 157.725C131.751 156.975 131.344 155.198 131.237 154.321C131.066 152.843 131.13 151.666 131.537 148.84C131.794 147.084 131.858 146.827 132.136 146.613C132.543 146.292 132.586 145.564 132.179 145.157C131.901 144.858 131.772 144.858 121.817 144.9Z" fill="white"/>
<path d="M136.181 131.07C136.588 130.599 136.566 130.257 136.095 129.786C135.753 129.443 135.603 129.4 134.854 129.4C134.383 129.4 131.835 129.336 129.18 129.25C124.106 129.101 123.742 129.122 123.443 129.679C123.229 130.107 123.293 130.556 123.657 130.899C123.999 131.22 123.999 131.22 128.131 131.327C130.401 131.37 132.884 131.434 133.676 131.456C135.624 131.498 135.839 131.456 136.181 131.07Z" fill="white"/>
<path d="M105.822 153.036C105.522 152.822 105.137 152.779 102.568 152.758C99.6773 152.737 99.6345 152.737 99.3133 153.036C98.8851 153.443 98.8851 154.021 99.3133 154.449L99.6345 154.77H102.675C105.565 154.77 105.715 154.748 105.993 154.491C106.336 154.149 106.271 153.379 105.822 153.036Z" fill="white"/>
<path d="M109.164 152.929C108.437 152.522 107.58 153.229 107.858 153.978C107.923 154.17 108.073 154.363 108.158 154.427C108.458 154.619 109.143 154.534 109.379 154.277C109.721 153.892 109.614 153.186 109.164 152.929Z" fill="white"/>
<path d="M95.5902 61.1475C96.4466 58.4928 95.8257 53.3332 94.6054 52.8193C94.1129 52.6052 93.4921 52.7765 93.278 53.1833C93.1067 53.5044 93.1709 53.954 93.5563 55.2386C94.1558 57.2511 94.0273 59.5633 93.1709 61.6828C92.7213 62.8175 92.7213 63.0958 93.2566 63.5026C94.1344 64.1877 94.8623 63.4597 95.5902 61.1475Z" fill="white"/>
<path d="M103.767 137.813C104.088 137.792 104.452 137.663 104.602 137.535C105.073 137.107 104.88 136.101 104.281 135.866C104.109 135.802 102.782 135.802 101.326 135.844C98.7355 135.93 98.6499 135.93 98.393 136.251C97.922 136.829 98.1361 137.599 98.8212 137.856C99.1209 137.963 102.268 137.942 103.767 137.813Z" fill="white"/>
<path d="M114.044 139.441C114.365 139.399 115.2 139.42 115.885 139.484C116.592 139.548 118.497 139.591 120.124 139.57C123.336 139.548 123.571 139.484 123.807 138.799C123.892 138.564 123.871 138.242 123.785 137.857C123.7 137.536 123.657 136.251 123.657 135.01C123.678 132.783 123.678 132.74 123.357 132.419C122.908 131.97 122.287 131.991 121.537 132.483C120.745 132.997 119.696 134.132 119.054 135.181L118.54 136.037L118.197 135.588C116.613 133.49 115.628 132.655 113.809 131.755C112.289 131.006 111.197 130.749 109.591 130.749C108.435 130.749 108.306 130.771 108.007 131.07C107.793 131.284 107.686 131.563 107.686 131.82C107.686 132.269 107.9 132.526 109.591 133.982C110.683 134.924 111.71 136.423 112.353 137.921C112.931 139.292 113.209 139.548 114.044 139.441ZM121.238 135.631L121.473 135.267L121.559 136.337C121.602 136.936 121.623 137.429 121.623 137.429C121.623 137.45 121.28 137.493 120.895 137.557C120.424 137.622 120.189 137.6 120.189 137.515C120.21 137.343 120.724 136.423 121.238 135.631ZM114.729 134.774C115.393 135.352 116.977 137.3 116.977 137.515C116.977 137.707 114.515 137.515 114.365 137.3C114.344 137.279 114.108 136.808 113.851 136.251C113.594 135.695 113.038 134.796 112.631 134.239C112.224 133.682 111.903 133.211 111.925 133.19C112.074 133.04 114.044 134.175 114.729 134.774Z" fill="white"/>
<path d="M96.8078 137.535C97.4501 137.193 97.5143 136.165 96.9149 135.844C96.5295 135.63 80.9436 135.673 80.4726 135.887C79.8303 136.187 79.7661 137.235 80.3655 137.599C80.5368 137.685 83.2344 137.749 88.5224 137.749C95.3306 137.728 96.4653 137.706 96.8078 137.535Z" fill="white"/>
<path d="M91.4364 150.745C96.6174 150.788 96.1892 151.002 96.2963 148.412C96.3819 146.249 96.5318 145.778 97.6879 143.787C98.7584 141.967 98.8654 141.668 98.7369 141.175C98.5871 140.619 97.8806 140.255 97.1527 140.362C96.5104 140.469 95.5041 140.94 94.6692 141.561C93.7486 142.246 91.9716 144.151 91.4364 145.029C91.1795 145.457 90.944 145.8 90.9012 145.8C90.8583 145.8 90.6228 145.436 90.3659 145.008C89.2526 143.081 86.7263 140.961 84.8852 140.426C84.1572 140.212 83.6006 140.426 83.3651 140.983C83.151 141.475 83.2581 141.882 83.8575 142.802C84.6068 143.98 85.7629 146.378 85.9984 147.234C86.1269 147.662 86.2339 148.476 86.2339 149.033C86.2553 150.189 86.3196 150.317 86.8762 150.553C87.1545 150.66 88.5461 150.724 91.4364 150.745ZM92.4426 147.62C92.8708 146.506 93.5131 145.521 94.4551 144.601L95.2044 143.851L94.9261 144.472C94.5407 145.35 94.2838 146.399 94.1768 147.598L94.0697 148.626H93.0849C92.5283 148.626 92.1001 148.604 92.1001 148.562C92.1001 148.519 92.2499 148.091 92.4426 147.62ZM87.1759 144.365C87.1974 144.344 87.4757 144.601 87.7968 144.943C88.3535 145.564 89.4667 147.662 89.638 148.39C89.7236 148.754 89.7022 148.754 89.1028 148.754C88.4177 148.754 88.5033 148.883 88.0751 147.127C87.9253 146.485 87.6469 145.628 87.4543 145.2C87.283 144.772 87.1545 144.387 87.1759 144.365Z" fill="white"/>
<path d="M140.098 61.3826C140.098 61.5538 140.205 61.7892 140.312 61.9176C140.44 62.046 140.676 62.153 140.847 62.153C141.232 62.153 141.703 61.7036 141.703 61.3398C141.703 60.9974 141.232 60.5266 140.89 60.5266C140.547 60.548 140.098 61.0188 140.098 61.3826Z" fill="white"/>
<path d="M97.3661 42.6499C100.513 42.9282 107.064 42.5856 108.906 42.0504C111.903 41.1726 112.824 38.5821 110.661 37.1263C109.805 36.5482 108.884 36.3127 107.493 36.3342C103.874 36.3342 93.7693 36.6339 92.8487 36.7623C90.7934 37.0193 89.7658 37.8114 89.7658 39.1174C89.7444 41.0656 92.1422 42.2003 97.3661 42.6499ZM92.3349 38.9675C92.5276 38.9247 92.7845 38.8604 92.8915 38.839C93.2555 38.732 99.507 38.5179 103.939 38.4537C108.242 38.4109 108.477 38.4109 109.077 38.6678C109.805 38.9889 109.869 39.1816 109.355 39.5669C108.82 39.9737 107.878 40.2092 105.823 40.4447C100.535 41.0228 94.5186 40.616 92.4633 39.5669C91.8639 39.2458 91.8211 39.0745 92.3349 38.9675Z" fill="white"/>
<path d="M92.5073 64.4448C92.1647 64.4448 91.9721 64.6375 91.0943 65.7508C89.981 67.1424 89.8954 67.4635 90.5162 67.9773C90.8374 68.2557 91.2013 68.2771 91.5867 68.063C92.0577 67.8061 93.4493 65.7722 93.4493 65.3654C93.4493 64.873 93.0211 64.4448 92.5073 64.4448Z" fill="white"/>
<path d="M52.2371 129.7C52.0659 129.615 49.9678 129.529 47.4843 129.465L43.5664 129.379C43.9304 130.064 44.2943 130.728 44.6797 131.413L46.3282 131.477C47.5057 131.52 49.3041 131.584 50.3317 131.584L52.1943 131.606L52.5155 131.242C52.6867 131.028 52.8366 130.792 52.8366 130.685C52.8366 130.321 52.5369 129.829 52.2371 129.7Z" fill="white"/>
<path d="M119.226 131.134C121.174 131.156 121.452 131.049 121.645 130.299C121.709 130 121.645 129.85 121.345 129.55C120.96 129.165 120.917 129.165 119.076 129.058C116.999 128.951 116.678 129.036 116.357 129.7C116.121 130.214 116.443 130.813 117.042 130.984C117.256 131.07 118.241 131.134 119.226 131.134Z" fill="white"/>
<path d="M158.51 111.459C157.847 111.673 157.633 112.508 158.125 113C158.489 113.364 159.003 113.342 159.409 112.936C159.773 112.572 159.795 112.486 159.602 111.994C159.452 111.609 158.896 111.331 158.51 111.459Z" fill="white"/>
<path d="M93.5114 109.618C93.2759 109.361 92.8477 109.297 92.441 109.447C91.9057 109.661 91.8415 110.132 91.7987 114.071L91.7559 117.86L92.1412 118.182C92.6122 118.588 92.9334 118.588 93.383 118.203L93.7469 117.903V113.9C93.7469 110.26 93.7255 109.853 93.5114 109.618Z" fill="white"/>
<path d="M119.139 97.1151C119.032 97.372 119.032 98.6138 119.139 101.376C119.225 103.516 119.31 106.792 119.353 108.633C119.417 112.466 119.46 112.787 119.824 113.151C120.167 113.493 120.766 113.493 121.173 113.151C121.451 112.915 121.494 112.765 121.537 111.631C121.622 109.34 120.98 97.4363 120.745 96.9867C120.402 96.323 119.417 96.4086 119.139 97.1151Z" fill="white"/>
<path d="M107.986 93.9894C107.879 92.084 107.771 91.8271 107.022 91.8271C106.23 91.8271 106.102 92.1696 106.102 94.2678C106.102 96.5157 106.251 97.5862 106.658 98.0144C107.065 98.4426 107.622 98.4212 107.986 97.9502C108.242 97.6076 108.264 97.4792 108.178 96.6442C108.114 96.1304 108.028 94.9314 107.986 93.9894Z" fill="white"/>
<path d="M117.727 51.8987C119.162 52.6909 123.551 52.8835 132.778 52.541C136.246 52.4125 141.47 52.3055 144.382 52.2841L149.135 52.2627C149.049 52.177 148.942 52.07 148.857 51.9843C148.236 51.3635 147.615 50.7854 146.994 50.186H143.997C142.027 50.186 138.023 50.293 135.048 50.4001C126.805 50.6998 120.511 50.6356 119.055 50.2288C118.52 50.0789 118.498 49.5437 119.012 49.2868C119.419 49.0941 120.853 48.8158 122.652 48.6017C124.878 48.3448 125.585 47.7453 125.585 46.2038C125.585 45.4759 125.628 45.3475 125.884 45.1762C126.313 44.8979 128.068 44.7266 131.558 44.641C134.213 44.5767 136.375 44.4483 139.222 44.2342L139.501 44.2128C138.58 43.5705 137.638 42.971 136.696 42.3716L134.662 42.4358C129.096 42.6285 126.313 42.8212 125.606 43.0139C124.621 43.3136 123.808 44.1271 123.594 45.0477C123.508 45.4331 123.444 45.8613 123.465 46.0326C123.508 46.3751 123.508 46.3751 120.853 46.7605C118.477 47.0816 117.299 47.6169 116.785 48.6017C116.678 48.8158 116.593 49.351 116.593 49.8434C116.571 50.8711 116.893 51.4491 117.727 51.8987Z" fill="white"/>
<path d="M54.0746 99.5989C53.7535 99.92 53.6678 101.997 53.6464 108.869L53.625 114.35L53.9461 114.671C54.3529 115.078 54.9095 115.099 55.3163 114.714L55.6375 114.414V107.199C55.6375 100.37 55.616 99.9629 55.3805 99.6631C55.1022 99.2992 54.4171 99.2564 54.0746 99.5989Z" fill="white"/>
<path d="M149.817 111.224C150.053 110.903 150.074 110.817 149.924 110.453C149.753 110.025 148.533 109.083 148.126 109.083C147.741 109.083 147.355 109.34 147.248 109.661C147.077 110.153 147.355 110.646 148.083 111.16C148.918 111.759 149.41 111.759 149.817 111.224Z" fill="white"/>
<path d="M135.924 47.2103C135.753 47.6599 135.967 48.2379 136.395 48.4306C136.567 48.5162 138.087 48.6019 139.778 48.6447C141.469 48.6875 143.589 48.7517 144.488 48.7945L145.494 48.8374C144.617 48.0666 143.717 47.3387 142.818 46.6108C142.219 46.6108 141.212 46.6108 140.056 46.5894C136.395 46.5252 136.181 46.5466 135.924 47.2103Z" fill="white"/>
<path d="M71.0102 43.592C71.524 43.2922 72.2947 42.8855 72.7229 42.7142C73.7292 42.2646 73.9647 42.0505 73.9647 41.5153C73.9647 41.1727 73.879 41.0015 73.6221 40.8302C73.3224 40.6375 73.1939 40.6161 72.6373 40.7659C71.7381 41.0015 69.4473 42.1147 69.1048 42.4787C68.7194 42.9069 68.7194 43.5706 69.1262 43.8917C69.5544 44.2557 69.9611 44.1914 71.0102 43.592Z" fill="white"/>
<path d="M62.7264 60.3554C63.1118 59.97 63.1118 60.0128 62.8334 58.5356C62.234 55.3242 63.283 51.235 65.4882 48.1949C65.8735 47.6597 66.3446 47.0174 66.5158 46.8033C66.9012 46.2681 66.9012 45.8185 66.4944 45.4117C65.9592 44.8765 65.531 44.9835 64.7817 45.7543C63.0047 47.5955 61.3562 51.0424 60.8424 53.9326C60.4356 56.2876 60.6925 59.6703 61.3348 60.3554C61.7201 60.7836 62.2982 60.7836 62.7264 60.3554Z" fill="white"/>
<path d="M63.733 102.317C63.0479 102.317 62.791 102.724 62.791 103.859C62.791 104.844 63.0051 105.465 63.4333 105.7C63.7758 105.893 63.9257 105.871 64.3325 105.572C64.675 105.315 64.6964 105.229 64.6964 104.116C64.675 102.724 64.4609 102.317 63.733 102.317Z" fill="white"/>
<path d="M49.7944 67.6549C50.6936 67.2483 50.3939 65.9216 49.409 65.9216C49.1093 65.9216 48.5312 66.5208 48.5312 66.8631C48.5312 67.0129 48.6811 67.2911 48.8524 67.4837C49.2378 67.8475 49.3234 67.8689 49.7944 67.6549Z" fill="white"/>
<path d="M74.6292 72.2376C73.8585 72.0877 73.0877 72.0021 72.9165 72.0449C72.2528 72.2162 72.1671 73.2652 72.788 73.6506C72.9593 73.7576 73.4945 73.9289 73.9655 74.0359C74.4365 74.143 75.1216 74.2286 75.4642 74.2286C75.9994 74.25 76.1278 74.1858 76.3633 73.8861C76.7273 73.4365 76.7059 73.2652 76.3419 72.837C76.085 72.5587 75.7853 72.4517 74.6292 72.2376Z" fill="white"/>
<path d="M47.1811 67.2707C47.3738 66.8211 47.1811 66.2644 46.7743 66.0504C46.6245 65.9647 46.0036 65.8577 45.4256 65.8148L44.8261 65.772C44.4407 66.4571 44.0554 67.1422 43.6914 67.8487L44.8047 67.913C46.5603 67.9986 46.9242 67.8915 47.1811 67.2707Z" fill="white"/>
<path d="M48.7892 73.9932C49.303 73.6293 49.7312 72.7943 49.7312 72.1734V71.7024H56.3681C63.4117 71.7024 64.1611 71.6596 65.2101 71.0815C66.0451 70.632 66.3234 70.1824 66.3876 69.2618C66.4304 68.6195 66.3876 68.384 66.0665 67.8059C65.1673 66.1574 64.1397 65.6864 60.8426 65.4937C59.5795 65.4295 58.2521 65.3225 57.8881 65.2582L57.2245 65.1726L56.9461 64.2734C56.5608 63.0531 56.0898 62.4964 55.0621 62.004C53.9917 61.4688 52.964 61.4046 49.4101 61.5758C48.5751 61.6187 47.8472 61.6401 47.3976 61.6615C46.9694 62.3038 46.5412 62.946 46.1131 63.6097L49.6028 63.5883C53.1781 63.5669 53.6277 63.5883 54.0773 63.8238C54.6554 64.1021 54.9551 64.5731 55.0621 65.4509C55.2762 66.971 56.1112 67.3135 60.0505 67.5276C62.9407 67.6775 63.4546 67.8059 63.9898 68.4482C64.2039 68.7051 64.3966 69.0049 64.3966 69.0905C64.3966 69.5401 63.3903 69.6043 56.625 69.5615C49.1532 69.5187 48.7892 69.5401 48.1255 70.2894C47.783 70.6962 47.7187 70.8675 47.7187 71.4883C47.7187 72.2162 47.6973 72.2376 47.2477 72.4303C46.7339 72.6444 44.2505 72.7515 42.1738 72.6658C41.8312 72.6444 41.5529 72.6444 41.3816 72.623C41.0605 73.3509 40.7607 74.0788 40.4824 74.8282L43.5654 74.7639C47.3334 74.7211 47.9328 74.6141 48.7892 73.9932Z" fill="white"/>
<path d="M21.6463 75.2678C19.7837 75.2678 18.2637 76.7878 18.2637 78.6504C18.2637 80.513 19.7837 82.0331 21.6463 82.0331C23.5089 82.0331 25.029 80.513 25.029 78.6504C25.0076 76.7664 23.5089 75.2678 21.6463 75.2678Z" fill="white"/>
<path d="M182.607 75.2678C180.745 75.2678 179.225 76.7878 179.225 78.6504C179.225 80.513 180.745 82.0331 182.607 82.0331C184.47 82.0331 185.99 80.513 185.99 78.6504C185.99 76.7664 184.47 75.2678 182.607 75.2678Z" fill="white"/>
<path d="M94.389 22.7847C94.6353 22.9557 94.9975 22.9984 95.5284 22.9497C95.785 22.9192 96.0064 22.8643 96.2278 22.8095C96.4493 22.7546 96.6232 22.6928 96.7374 22.6417L95.4018 11.3673C95.3466 10.886 95.1986 10.5747 94.9399 10.4213C94.6813 10.2679 94.3191 10.2252 93.8357 10.2808C93.609 10.3059 93.37 10.3486 93.1539 10.4332C92.9202 10.5057 92.7585 10.5499 92.6443 10.601L93.9799 21.8754C94.0121 22.3148 94.1602 22.626 94.389 22.7847Z" fill="white"/>
<path d="M24.2007 142.738C24.2746 143.003 24.3641 143.254 24.4971 143.52C24.6161 143.771 24.749 144.037 24.8836 144.273C25.0321 144.524 25.1823 144.746 25.3185 144.953C25.4687 145.174 25.6065 145.352 25.7444 145.529C26.322 146.298 26.9668 146.919 27.6353 147.378C28.3334 147.838 29.0552 148.135 29.8163 148.255C30.5773 148.376 31.3933 148.305 32.2346 148.042C33.0758 147.78 33.9285 147.311 34.8221 146.636C35.6706 145.976 36.3297 145.27 36.7837 144.535C37.2238 143.784 37.5023 143.019 37.5897 142.238C37.6771 141.457 37.5735 140.66 37.2943 139.834C37.0291 139.022 36.6007 138.225 36.0092 137.441C35.7072 137.027 35.3602 136.628 34.9852 136.2C34.6103 135.771 34.2009 135.43 33.7744 135.134C33.5603 135.001 33.3725 134.926 33.1969 134.896C33.0059 134.881 32.8255 134.939 32.6246 135.101L31.9806 136.499L25.6988 141.328L24.6241 141.221C24.1461 141.588 24.0159 142.074 24.2007 142.738ZM33.3514 137.712C33.5048 137.875 33.6583 138.038 33.8256 138.215C33.993 138.393 34.1587 138.6 34.3368 138.851C34.6666 139.294 34.9063 139.767 35.0713 140.254C35.2224 140.726 35.2538 141.227 35.1826 141.714C35.1115 142.2 34.9222 142.686 34.6149 143.171C34.3076 143.656 33.8542 144.112 33.2673 144.582C32.1261 145.462 31.0405 145.871 30.0711 145.78C29.1018 145.688 28.2298 145.169 27.5004 144.208C27.3347 144.001 27.1706 143.765 27.036 143.529C26.8719 143.292 26.7668 143.056 26.6741 142.864L25.6988 141.328L31.9806 136.499L33.3514 137.712Z" fill="white"/>
<g filter="url(#filter3_d)">
<path d="M163.911 51.2227C163.54 51.4623 163.316 51.7394 163.286 52.0161C163.232 52.3117 163.365 52.6708 163.64 53.11C163.769 53.3178 163.92 53.5066 164.074 53.6741C164.228 53.8417 164.366 53.9643 164.442 54.0587L173.081 48.4965L174.608 50.8812C174.774 51.1362 174.973 51.2871 175.229 51.315C175.482 51.3641 175.772 51.2665 176.072 51.0839C176.256 50.9747 176.4 50.8397 176.525 50.681C176.65 50.5223 176.728 50.4016 176.785 50.2785L171.941 42.7514C171.775 42.4964 171.576 42.3455 171.323 42.2963C171.07 42.2472 170.782 42.3235 170.456 42.5464C170.272 42.6555 170.128 42.7906 170.003 42.9493C169.88 43.0867 169.8 43.2287 169.722 43.3494L171.582 46.2441L163.911 51.2227Z" fill="white"/>
</g>
<path d="M13.943 109.468C13.4992 109.51 13.2062 109.656 13.064 109.905C12.9217 110.155 12.875 110.486 12.9196 110.963C12.9364 111.189 12.9792 111.403 13.0405 111.624C13.1017 111.845 13.1487 111.995 13.1847 112.119L20.5303 111.265C21.3366 111.171 21.9563 111.33 22.4413 111.721C22.9004 112.123 23.1736 112.669 23.235 113.372C23.2965 114.074 23.1444 114.67 22.7527 115.17C22.3795 115.677 21.7751 115.961 20.9872 116.063L14.6513 116.795C14.2076 116.836 13.9146 116.982 13.7723 117.232C13.6376 117.462 13.5834 117.812 13.6171 118.263C13.6339 118.489 13.6767 118.703 13.7379 118.924C13.7992 119.145 13.8461 119.295 13.8897 119.4L21.3241 118.537C21.9972 118.456 22.5825 118.274 23.0981 117.998C23.6138 117.723 24.0415 117.346 24.3997 116.877C24.7579 116.407 24.9946 115.867 25.1433 115.227C25.2921 114.586 25.3303 113.901 25.2546 113.127C25.1789 112.353 25.0027 111.671 24.737 111.105C24.4789 110.521 24.1127 110.047 23.6905 109.66C23.2684 109.272 22.775 109.01 22.2181 108.854C21.6612 108.697 21.0332 108.665 20.3676 108.728L13.943 109.468Z" fill="white"/>
<g filter="url(#filter4_d)">
<path d="M152.933 25.715C151.887 25.6146 150.98 25.956 150.198 26.756C149.843 27.1293 149.594 27.5063 149.439 27.9037C149.297 28.2844 149.249 28.6855 149.264 29.1102C149.293 29.5182 149.385 29.9498 149.554 30.3884C149.724 30.8269 149.926 31.2923 150.205 31.7647L150.884 32.9706C151.186 33.5165 151.355 33.9551 151.397 34.3464C151.423 34.7243 151.308 35.0717 151.006 35.3783C150.677 35.7183 150.282 35.8675 149.808 35.8426C149.333 35.8176 148.799 35.525 148.222 34.9781C147.679 34.4581 147.286 33.9219 147.057 33.3527C146.828 32.7836 146.696 32.2649 146.648 31.8133C146.394 31.7189 146.116 31.6879 145.832 31.7338C145.548 31.7797 145.287 31.8992 145.068 32.1359C144.864 32.3559 144.756 32.6264 144.731 32.964C144.707 33.3016 144.776 33.6596 144.925 34.0546C145.074 34.4497 145.304 34.8817 145.61 35.3207C145.916 35.7597 146.299 36.2057 146.756 36.6284C147.332 37.1753 147.896 37.6018 148.49 37.8879C149.071 38.1907 149.622 38.3597 150.16 38.4082C150.699 38.4568 151.194 38.3882 151.676 38.1991C152.158 38.0101 152.583 37.7206 152.966 37.3139C153.691 36.5506 154.028 35.7225 153.99 34.8129C153.94 33.92 153.619 32.9192 153 31.8439L152.412 30.7654C152.129 30.263 151.977 29.8378 151.928 29.5234C151.879 29.2089 151.97 28.925 152.232 28.6684C152.533 28.3618 152.915 28.2293 153.349 28.3042C153.784 28.3792 154.271 28.6616 154.781 29.1548C155.241 29.6077 155.611 30.0703 155.893 30.5727C156.176 31.0752 156.345 31.5137 156.417 31.9018C156.634 31.9393 156.879 31.9435 157.099 31.874C157.337 31.8179 157.538 31.7049 157.729 31.5015C157.921 31.2982 158.045 31.0411 158.056 30.7202C158.084 30.4127 158.018 30.0848 157.872 29.7198C157.726 29.3549 157.503 28.9831 157.217 28.5876C156.931 28.1921 156.568 27.7897 156.144 27.3938C155.031 26.3871 153.996 25.8287 152.933 25.715Z" fill="white"/>
</g>
<g filter="url(#filter5_d)">
<path d="M183.932 62.5674C183.826 62.3415 183.63 61.8255 183.494 61.6054C183.346 61.4031 183.402 61.4666 183.319 61.3595L177.876 60.8497L181.066 56.4154C181.132 56.1247 180.834 55.6174 180.616 55.1358C180.51 54.9099 180.391 54.7017 180.255 54.4817C180.119 54.2616 179.642 54.079 179.333 54.2199L174.843 60.7446C174.147 61.0514 172.68 61.7305 172.68 61.7305C172.68 61.7305 170.826 62.5755 170.501 62.7236C170.501 62.7236 169.899 62.998 169.59 63.1388C169.281 63.2797 169.562 63.8977 169.842 64.5114C170.122 65.1252 170.407 65.7517 170.716 65.6109C171.096 65.4378 171.025 65.4701 171.643 65.1884C172.025 65.0146 173.806 64.2025 173.806 64.2025C173.806 64.2025 175.262 63.5413 175.969 63.2167L183.84 64.1079C184.149 63.9671 184.131 63.7318 184.131 63.7318C184.176 63.2082 184.133 63.0371 183.932 62.5674Z" fill="white"/>
</g>
<g filter="url(#filter6_d)">
<path d="M14.212 91.3592C14.8883 91.4218 16.5477 91.9163 16.7888 93.5172C17.2279 92.7149 17.9851 91.8684 18.6881 91.4585C19.3912 91.0486 20.2093 90.893 21.1031 90.9645C22.4873 91.0844 23.5155 91.6681 24.2147 92.6763C24.914 93.6845 25.1616 95.1601 25.0033 97.0536C24.9518 97.7166 24.8609 98.3524 24.7306 98.9609C24.6107 99.5882 24.458 100.111 24.2352 100.551C24.1298 100.804 23.9935 101.001 23.8349 101.112C23.6865 101.242 23.4679 101.289 23.1893 101.271L12.3819 100.263C11.9205 100.223 11.5699 100.073 11.3882 99.8312C11.2066 99.589 11.1443 99.2081 11.1994 98.6408C11.2176 98.3622 11.2468 97.6309 11.3146 97.3984L16.0517 97.7381C16.0517 97.7381 16.3254 96.1286 16.2438 95.7284C15.9006 94.046 14.6694 93.7887 14.6694 93.7887C14.3011 93.7547 14.1858 94.0032 13.9618 94.0643C13.7379 94.1255 13.1753 94.8422 13.0451 95.5123C13.0138 95.8504 12.922 96.2431 12.8604 97.5093C12.697 97.8185 11.1535 97.9506 11.3146 97.3984L11.7575 93.347C11.7575 93.347 12.1525 92.1335 12.4588 91.8791C12.8282 91.5723 13.5357 91.2967 14.212 91.3592ZM19.1335 94.3637C18.7296 94.8293 18.4952 95.4706 18.4013 96.2789L18.2479 98.0476L22.469 98.4431C22.5181 98.2209 22.5757 97.9696 22.6229 97.6996C22.6702 97.4295 22.7174 97.1594 22.7356 96.8809C22.9211 94.9481 22.2781 93.9091 20.8358 93.7722C20.0958 93.714 19.5187 93.9084 19.1335 94.3637Z" fill="white"/>
</g>
<path d="M141.631 170.145C142.299 171.026 143.113 171.516 144.054 171.593C144.995 171.67 146.083 171.488 147.301 171.022L148.516 170.577C149.086 170.381 149.535 170.276 149.884 170.263C150.208 170.269 150.491 170.398 150.728 170.694C151.019 171.062 151.089 171.462 150.934 171.915C150.779 172.368 150.409 172.811 149.818 173.284C149.279 173.701 148.735 174.009 148.164 174.204C147.614 174.403 147.12 174.523 146.684 174.544C146.606 174.771 146.571 175.004 146.596 175.267C146.625 175.51 146.717 175.762 146.879 175.981C147.058 176.224 147.318 176.372 147.632 176.441C147.946 176.51 148.295 176.497 148.701 176.385C149.105 176.295 149.521 176.119 149.989 175.887C150.457 175.654 150.917 175.334 151.404 174.974C152.604 174.051 153.363 173.039 153.634 171.954C153.906 170.869 153.69 169.862 152.982 168.955C152.658 168.516 152.294 168.202 151.915 167.993C151.535 167.784 151.121 167.657 150.694 167.614C150.268 167.571 149.807 167.61 149.316 167.709C148.825 167.809 148.324 167.971 147.777 168.149L146.423 168.659C145.825 168.894 145.312 168.99 144.904 168.972C144.495 168.953 144.158 168.751 143.885 168.407C143.576 168.014 143.491 167.568 143.607 167.087C143.726 166.586 144.105 166.08 144.766 165.573C145.403 165.085 146.035 164.768 146.663 164.625C147.291 164.481 147.842 164.413 148.336 164.444C148.459 164.203 148.546 163.913 148.548 163.61C148.55 163.307 148.465 163.013 148.264 162.766C148.063 162.519 147.807 162.351 147.471 162.279C147.136 162.206 146.745 162.212 146.299 162.297C145.853 162.381 145.395 162.55 144.881 162.798C144.368 163.045 143.863 163.38 143.327 163.776C142.666 164.282 142.132 164.808 141.722 165.374C141.315 165.919 141.056 166.486 140.931 167.031C140.806 167.575 140.789 168.113 140.903 168.65C141.017 169.187 141.268 169.679 141.631 170.145Z" fill="white"/>
</g>
<path d="M102.138 166.16C139.396 166.16 169.599 135.957 169.599 98.6992C169.599 61.4418 139.396 31.2387 102.138 31.2387C64.8808 31.2387 34.6777 61.4418 34.6777 98.6992C34.6777 135.957 64.8808 166.16 102.138 166.16Z" fill="#D15327"/>
<path d="M152.224 54.7032C161.083 64.7735 166.969 77.4896 168.524 91.5083H140.729C140.88 77.8941 145.087 65.2337 152.224 54.7032Z" fill="black"/>
<path d="M125.466 91.5086H108.828V32.2576C120.696 33.4858 131.655 37.8145 140.88 44.4315C131.335 57.7394 125.624 73.9567 125.466 91.5086Z" fill="black"/>
<path d="M95.0762 32.2448V91.5082H76.7134C75.2282 74.9586 68.8021 59.8221 58.9531 47.5336C68.9445 39.1523 81.4109 33.6464 95.0762 32.2448Z" fill="black"/>
<path d="M48.3585 58.8016C55.3547 68.1331 59.9733 79.3295 61.3285 91.5081H35.3809C36.7397 79.33 41.3582 68.1367 48.3585 58.8016Z" fill="black"/>
<path d="M35.2578 105.264H61.4567C60.2516 117.828 55.5495 129.376 48.3598 138.966C41.165 129.373 36.4675 117.828 35.2578 105.264Z" fill="black"/>
<path d="M76.7748 105.264H95.0803V165.52C81.415 164.119 68.9547 158.615 58.9629 150.242C69.0032 137.706 75.4614 122.202 76.7748 105.264Z" fill="black"/>
<path d="M108.828 165.532V105.264H126.56C129.202 121.604 136.614 136.358 147.385 148.015C137.017 157.614 123.641 164.005 108.828 165.532Z" fill="black"/>
<path d="M157.454 136.416C149.796 127.722 144.357 117.04 142.006 105.263H168.636C167.55 116.725 163.597 127.362 157.454 136.416Z" fill="black"/>
</g>
<g filter="url(#filter7_d)">
<path d="M107.501 177.86C107.481 177.419 107.355 177.086 107.131 176.92C106.903 176.725 106.526 176.658 106.008 176.674C105.764 176.68 105.525 176.716 105.302 176.764C105.08 176.813 104.905 176.87 104.785 176.887L105.228 187.153L102.399 187.268C102.095 187.283 101.864 187.379 101.711 187.585C101.541 187.779 101.479 188.079 101.485 188.43C101.486 188.644 101.53 188.837 101.604 189.025C101.678 189.213 101.743 189.341 101.821 189.451L110.764 189.067C111.067 189.053 111.298 188.957 111.468 188.763C111.638 188.57 111.718 188.282 111.69 187.889C111.689 187.674 111.645 187.482 111.571 187.294C111.514 187.119 111.432 186.978 111.367 186.85L107.929 186.995L107.501 177.86Z" fill="white"/>
</g>
<g filter="url(#filter8_d)">
<path d="M63.7726 171.518C64.1299 170.835 64.4582 170.16 64.7551 169.54C65.0624 168.903 65.328 168.34 65.554 167.804C65.7986 167.278 65.9724 166.836 66.0939 166.487C66.1819 166.242 66.1847 165.973 66.0462 165.651C65.9264 165.338 65.711 165.022 65.4186 164.711C65.1718 164.451 64.6425 164.081 64.6425 164.081L64.0079 163.725L63.0537 163.192C63.0537 163.192 62.095 162.584 62.1483 162.884C62.2016 163.183 63.1868 164.455 63.4523 164.726C63.7716 165.076 63.7266 165.339 64.113 165.481C64.6739 165.77 64.542 166.108 64.542 166.108C64.542 166.108 62.8027 166.095 63.422 166.441L63.505 166.512C62.7589 167.935 62.0046 169.328 61.2816 170.666C60.54 171.993 59.7669 173.376 58.9835 174.778C58.7746 175.152 58.6822 175.492 58.7085 175.752C58.7245 176.031 58.8651 176.306 59.1306 176.577C59.3504 176.798 59.5912 176.981 59.855 177.08C60.1375 177.189 60.3744 177.247 60.5761 177.237C60.906 176.735 61.2485 176.166 61.6037 175.53C61.9588 174.895 62.3244 174.241 62.6818 173.557C63.0578 172.885 63.4152 172.201 63.7726 171.518Z" fill="white"/>
<path d="M62.661 163.08C63.0899 163.334 63.4965 163.601 63.8665 163.848C64.2487 164.102 64.5822 164.329 64.8811 164.562C65.1901 164.777 65.428 164.977 65.605 165.145C65.7311 165.261 65.8045 165.447 65.7949 165.757C65.7955 166.049 65.7311 166.403 65.612 166.801C65.5111 167.135 65.2441 167.721 65.2441 167.721L64.9009 168.363L64.3842 169.326C64.3842 169.326 63.8842 170.344 63.8411 170.102C63.7981 169.86 61.7668 173.729 61.8779 173.376C62.005 172.934 60.801 172.256 61.0299 171.917C61.3401 171.368 62.4499 169.059 62.4499 169.059C62.4499 169.059 63.437 167.459 63.7724 166.834L63.8108 166.733C62.9164 166.205 62.024 165.702 61.1683 165.219C60.3024 164.754 59.4 164.27 58.4853 163.779C58.2414 163.649 58.0868 163.468 58.0357 163.271C57.9724 163.067 57.9962 162.788 58.1073 162.435C58.2002 162.145 58.3175 161.867 58.4734 161.635C58.6395 161.384 58.7874 161.196 58.9293 161.078C59.291 161.224 59.6792 161.408 60.0938 161.63C60.5084 161.852 60.9353 162.081 61.3642 162.336C61.8032 162.571 62.2321 162.826 62.661 163.08Z" fill="white"/>
</g>
<g filter="url(#filter9_d)">
<path d="M119.523 24.0645L125.474 25.8674C126.08 26.0476 126.485 25.7884 126.711 25.0855C126.776 24.8751 126.8 24.6733 126.803 24.476C126.806 24.2786 126.775 24.1319 126.749 24.0061L121.286 22.3424L122.204 19.2871L126.379 20.5407C126.985 20.7209 127.39 20.4617 127.616 19.7588C127.681 19.5484 127.705 19.3467 127.691 19.1746C127.677 19.0026 127.663 18.8305 127.616 18.7091L122.81 17.2588L123.65 14.4603L128.41 15.8983C128.687 15.9718 128.927 15.9658 129.135 15.8131C129.349 15.6814 129.515 15.4282 129.6 15.1042C129.666 14.8938 129.69 14.6921 129.697 14.5157C129.699 14.3183 129.669 14.1716 129.643 14.0458L123.132 12.075C122.712 11.9438 122.346 11.9759 122.029 12.1295C121.715 12.304 121.49 12.5912 121.359 13.012L118.556 22.2537C118.425 22.6745 118.457 23.0396 118.611 23.3576C118.815 23.7087 119.102 23.9333 119.523 24.0645Z" fill="white"/>
</g>
<g filter="url(#filter10_d)">
<path d="M104.222 16.313C104.382 17.0671 104.56 17.7964 104.726 18.4625C104.895 19.1496 105.05 19.7525 105.217 20.3095C105.364 20.8703 105.512 21.3219 105.641 21.6683C105.73 21.9132 105.899 22.1217 106.211 22.2819C106.502 22.4461 106.87 22.5527 107.293 22.6055C107.65 22.6489 107.977 22.6541 108.293 22.5961C108.609 22.538 108.837 22.4744 108.993 22.3803C109.186 22.1272 109.461 21.7284 109.776 21.1917C110.112 20.6511 110.454 20.0223 110.847 19.3189C111.241 18.6154 111.626 17.8698 112.029 17.0993C112.431 16.3288 112.796 15.587 113.101 14.878C113.431 14.1861 113.705 13.5479 113.932 13.0056C114.159 12.4633 114.279 12.0494 114.321 11.8023C114.377 11.4001 114.281 11.1131 114.049 10.9162C113.817 10.7194 113.509 10.5802 113.131 10.5407C112.662 10.4745 112.237 10.5308 111.848 10.6674C111.538 11.4646 111.21 12.2867 110.857 13.0916C110.508 13.9175 110.155 14.7224 109.803 15.5273C109.45 16.3322 109.093 17.1161 108.754 17.875C108.393 18.6378 108.063 19.3296 107.729 20.0005L107.62 19.9987C107.288 18.4272 106.981 16.8729 106.685 15.3817C106.41 13.8867 106.124 12.3284 105.834 10.7492C105.757 10.328 105.61 10.0066 105.424 9.8231C105.234 9.61855 104.951 9.49651 104.573 9.45697C104.263 9.4269 103.961 9.43893 103.695 9.53133C103.408 9.62759 103.188 9.73331 103.038 9.86954C103.105 10.4669 103.204 11.1235 103.335 11.8394C103.467 12.5554 103.602 13.2924 103.762 14.0465C103.901 14.8046 104.062 15.5588 104.222 16.313Z" fill="white"/>
</g>
<g filter="url(#filter11_d)">
<path d="M78.6021 26.279C78.8594 26.3934 79.2273 26.3752 79.7058 26.2246C79.936 26.1434 80.1663 26.0623 80.3605 25.9581C80.5547 25.8538 80.7077 25.774 80.8016 25.7071L79.4133 21.2529C79.1879 20.5738 78.9561 19.8651 78.7115 19.0972C78.4552 18.3474 78.1874 17.6155 77.8964 16.9197L78.0083 16.8644C78.3171 17.2154 78.6865 17.6308 79.0918 18.0693C79.4972 18.5078 79.8961 18.9167 80.3182 19.2896L84.7306 23.4725C85.1166 23.8223 85.5 24.0177 85.8512 24.0651C86.214 24.0946 86.5935 24.0584 86.9832 23.9271C87.3433 23.8022 87.6559 23.6721 87.8848 23.5138C88.1253 23.3375 88.3066 23.1741 88.4043 22.9824L85.0765 12.3969C84.9387 11.9776 84.7559 11.7075 84.4986 11.5931C84.2413 11.4787 83.8734 11.4969 83.395 11.6475C83.1763 11.7106 82.9641 11.8033 82.7519 11.896C82.5397 11.9887 82.4046 12.0801 82.2927 12.1355L83.681 16.5896C83.9128 17.2983 84.1446 18.007 84.3944 18.7273C84.6443 19.4475 84.9121 20.1794 85.2159 20.9344L85.1336 20.9833C84.8248 20.6322 84.4734 20.2284 84.0565 19.8079C83.6512 19.3694 83.2407 18.9785 82.8302 18.5876L78.4177 14.4047C78.0317 14.055 77.6599 13.8416 77.2971 13.8121C76.9344 13.7826 76.5369 13.8072 76.1472 13.9386C75.7986 14.0455 75.5221 14.1986 75.27 14.393C75.018 14.5873 74.8611 14.7919 74.7699 15.0132L78.0538 25.4688C78.1505 25.9125 78.3448 26.1646 78.6021 26.279Z" fill="white"/>
</g>
<g filter="url(#filter12_d)">
<path d="M31.23 69.6125C31.5044 69.4556 31.7514 69.1807 31.9643 68.7583C32.0707 68.5472 32.1363 68.361 32.1792 68.2112C32.204 68.05 32.2469 67.9002 32.2422 67.7459C31.9787 67.4807 31.6243 67.1588 31.2198 66.7553C30.8154 66.3519 30.4179 65.9779 30.0203 65.6039L32.0806 61.4894L34.2007 61.8523C34.5888 61.9177 34.8974 61.9082 35.1379 61.8058C35.3783 61.7034 35.614 61.4467 35.8087 61.013C35.9604 60.7292 36.035 60.4477 36.0505 60.1799C36.0661 59.9121 36.0295 59.6875 35.9703 59.4992C35.1464 59.364 34.2271 59.2198 33.1762 59.044C32.1434 58.8795 31.0812 58.7219 30.0008 58.553C28.9203 58.384 27.8763 58.2377 26.8322 58.0914C25.8063 57.9564 24.9052 57.8236 24.1062 57.7292C23.7839 57.6796 23.455 57.8026 23.149 58.0911C22.8429 58.3797 22.5869 58.7499 22.3741 59.1723C22.2179 59.5038 22.0912 59.8284 22.019 60.1871C21.9468 60.5457 21.9199 60.8317 21.9201 61.0337C22.2087 61.3397 22.5473 61.7274 22.9585 62.1604C23.3698 62.5933 23.7879 63.0558 24.2605 63.5522C24.7331 64.0487 25.2057 64.5451 25.7146 65.0642C26.2123 65.6015 26.6962 66.0798 27.1801 66.558C27.6641 67.0363 28.0935 67.4806 28.4979 67.8841C28.9023 68.2876 29.2454 68.6276 29.5384 68.886C29.6975 69.0356 29.8383 69.1738 29.9429 69.2894C30.0656 69.4164 30.1927 69.4957 30.3494 69.5681C30.6583 69.7606 30.9374 69.7581 31.23 69.6125ZM27.3215 63.2151C26.9716 62.8456 26.6285 62.5056 26.2854 62.1656C25.9424 61.8256 25.6175 61.4969 25.2926 61.1682C24.9858 60.8508 24.6859 60.563 24.4519 60.2909L24.5085 60.2001L29.9469 61.0675L28.3575 64.2646C28.0145 63.9246 27.6827 63.5664 27.3215 63.2151Z" fill="white"/>
</g>
<g filter="url(#filter13_d)">
<path d="M178.867 90.4391C178.693 90.7027 178.595 91.0593 178.595 91.5322C178.595 91.7687 178.62 91.9645 178.649 92.1176C178.7 92.2727 178.729 92.4258 178.802 92.5615C179.157 92.6799 179.618 92.8081 180.161 92.9867C180.703 93.1652 181.227 93.3206 181.75 93.4759L181.759 98.0774L179.703 98.7064C179.326 98.8225 179.055 98.9697 178.886 99.1693C178.718 99.3688 178.622 99.7041 178.644 100.179C178.636 100.501 178.696 100.786 178.802 101.032C178.909 101.278 179.042 101.462 179.18 101.604C179.977 101.354 180.862 101.07 181.88 100.754C182.877 100.437 183.896 100.1 184.937 99.7652C185.978 99.4304 186.977 99.0917 187.975 98.7529C188.952 98.4122 189.817 98.1258 190.573 97.8509C190.883 97.7502 191.122 97.4926 191.265 97.0972C191.409 96.7019 191.471 96.2561 191.471 95.7831C191.462 95.4168 191.429 95.0698 191.332 94.717C191.236 94.3642 191.131 94.0967 191.04 93.9164C190.645 93.7727 190.168 93.5787 189.606 93.3768C189.044 93.175 188.462 92.9499 187.817 92.7189C187.172 92.4879 186.526 92.257 185.838 92.0221C185.152 91.7659 184.505 91.5563 183.858 91.3467C183.211 91.137 182.627 90.9332 182.085 90.7546C181.542 90.5761 181.083 90.4266 180.705 90.3276C180.495 90.2654 180.307 90.2053 180.162 90.149C179.995 90.0908 179.846 90.0771 179.674 90.0829C179.311 90.0497 179.063 90.1775 178.867 90.4391ZM185.235 94.3963C185.713 94.569 186.173 94.7185 186.632 94.8679C187.091 95.0174 187.529 95.1649 187.967 95.3124C188.384 95.458 188.781 95.5803 189.112 95.7181L189.103 95.8247L183.855 97.495L183.837 93.9246C184.297 94.0741 184.754 94.2449 185.235 94.3963Z" fill="white"/>
</g>
<g filter="url(#filter14_d)">
<path d="M38.1664 50.13L38.7183 49.0935L39.042 48.3429L39.0354 48.4035L39.1399 47.4488C39.1399 47.4488 39.3436 46.1927 39.0883 45.4642C38.833 44.7357 38.3371 44.118 37.6308 43.6142C36.5563 42.857 35.4526 42.6448 34.3229 42.9476C33.1933 43.2503 32.1048 44.1515 31.074 45.6377C30.7138 46.1466 30.397 46.6754 30.0969 47.1908C29.8102 47.7228 29.5903 48.2013 29.4673 48.6295C29.3942 48.8804 29.3711 49.0911 29.3948 49.2917C29.4353 49.4788 29.5526 49.6592 29.7668 49.7892L38.209 55.7237C38.5772 55.9772 38.9016 56.0736 39.1824 56.013C39.4632 55.9523 39.7503 55.6944 40.0539 55.286C40.214 55.0751 40.3274 54.8743 40.4273 54.6568C40.5273 54.4393 40.5906 54.2787 40.6472 54.1783L37.099 51.6731L38.1664 50.13ZM32.0412 48.2107C32.1378 48.0233 32.2679 47.8091 32.3845 47.5782C32.5012 47.3473 32.6479 47.1197 32.8081 46.9088C33.8722 45.3958 34.9616 45.0429 36.0931 45.8369C36.6588 46.2338 36.9538 46.7382 36.9514 47.3167C36.9624 47.9118 36.7294 48.5107 36.2924 49.1634L35.3184 50.5492L32.0412 48.2107Z" fill="white"/>
</g>
<g filter="url(#filter15_d)">
<path d="M46.1837 31.2778C45.8626 30.9227 45.5519 30.7648 45.2517 30.8039C44.9515 30.8431 44.6444 31.0175 44.2745 31.365C44.097 31.5255 43.9458 31.701 43.8004 31.897C43.655 32.0931 43.56 32.2307 43.4798 32.3419L48.9318 38.113C49.5305 38.7464 49.7968 39.3834 49.7835 40.0538C49.7438 40.7094 49.4634 41.2986 48.916 41.8066C48.3685 42.3147 47.7727 42.5695 47.1023 42.5562C46.4376 42.5635 45.8105 42.227 45.2176 41.6143L40.5191 36.6334C40.198 36.2784 39.8873 36.1204 39.5871 36.1596C39.3075 36.193 38.9798 36.3731 38.6248 36.6943C38.4473 36.8548 38.2961 37.0303 38.1507 37.2263C38.0053 37.4224 37.9103 37.56 37.8507 37.6655L43.367 43.5076C43.8693 44.0344 44.399 44.4203 44.9618 44.6858C45.5247 44.9513 46.115 45.0758 46.7384 45.08C47.3618 45.0841 47.9657 44.9382 48.597 44.6512C49.2282 44.3643 49.825 43.9537 50.4229 43.3871C51.0207 42.8206 51.4776 42.2267 51.7786 41.6317C52.1002 41.031 52.2602 40.4086 52.3114 39.7943C52.3625 39.18 52.2636 38.5853 52.0351 38.0044C51.8067 37.4235 51.4281 36.8622 50.9465 36.3296L46.1837 31.2778Z" fill="white"/>
</g>
<g filter="url(#filter16_d)">
<path d="M68.0564 17.5769C67.8196 17.1608 67.5504 16.9394 67.2488 16.9127C66.9472 16.8861 66.6098 16.99 66.1735 17.2492C65.9654 17.3676 65.7799 17.5062 65.5956 17.6662C65.4112 17.8262 65.2887 17.94 65.1864 18.0312L69.2616 24.8446C69.7091 25.5924 69.8314 26.272 69.6734 26.9237C69.4929 27.5551 69.0918 28.0698 68.4474 28.4474C67.8031 28.8251 67.1663 28.9451 66.5146 28.7871C65.8641 28.6506 65.3246 28.1864 64.8782 27.46L61.3678 21.5811C61.131 21.165 60.8618 20.9436 60.5602 20.9169C60.28 20.8891 59.9212 20.9941 59.5051 21.2309C59.2971 21.3493 59.1116 21.4879 58.9272 21.6478C58.7428 21.8078 58.6203 21.9216 58.5394 22.0117L62.6619 28.9084C63.0384 29.5313 63.4722 30.0226 63.9643 30.4035C64.4565 30.7844 65.0059 31.0336 65.6137 31.1725C66.2214 31.3114 66.8426 31.2994 67.5209 31.1558C68.1993 31.0121 68.8708 30.7402 69.577 30.3164C70.2832 29.8925 70.8576 29.4114 71.2802 28.8956C71.7241 28.3786 72.0149 27.8055 72.1977 27.2168C72.3804 26.6281 72.4124 26.0261 72.315 25.4096C72.2175 24.793 71.9693 24.1632 71.6141 23.539L68.0564 17.5769Z" fill="white"/>
</g>
<g filter="url(#filter17_d)">
<path d="M140.964 29.4984C140.799 28.5716 140.653 27.5871 140.487 26.5646C141.398 26.6492 142.22 26.5145 142.953 26.1608C143.686 25.807 144.272 25.2157 144.712 24.4347C145.387 23.2199 145.477 22.041 145.032 20.8975C144.587 19.7539 143.502 18.7236 141.844 17.7961C141.265 17.4681 140.687 17.188 140.11 16.9558C139.523 16.7045 139.004 16.5385 138.515 16.4775C138.246 16.4234 138.007 16.4264 137.825 16.4956C137.635 16.5459 137.474 16.7011 137.333 16.9422L132.127 26.4668C131.902 26.8717 131.83 27.246 131.929 27.5321C132.029 27.8181 132.31 28.0827 132.811 28.3542C133.052 28.4949 133.292 28.5877 133.523 28.6614C133.754 28.7352 133.927 28.7905 134.071 28.8366L136.272 24.8357L138.046 25.8L138.425 30.1808C138.469 30.592 138.53 30.9455 138.659 31.2408C138.758 31.5268 139.01 31.7822 139.415 32.007C139.714 32.1661 140.04 32.2387 140.403 32.1959C140.767 32.1531 141.071 31.9962 141.365 31.7244C141.224 31.1708 141.109 30.4349 140.964 29.4984ZM140.793 24.1671C140.181 24.2416 139.518 24.0775 138.795 23.7034L137.243 22.8416L139.275 19.1205C139.487 19.2041 139.727 19.2968 139.978 19.4087C140.228 19.5205 140.478 19.6323 140.719 19.7729C142.426 20.6998 142.928 21.8139 142.235 23.0864C141.869 23.7325 141.386 24.1023 140.793 24.1671Z" fill="white"/>
</g>
<g filter="url(#filter18_d)">
<path d="M156.792 43.6122C156.789 43.9119 156.957 44.2347 157.296 44.6447C157.465 44.8391 157.635 44.9906 157.805 45.1421C157.975 45.2936 158.124 45.4021 158.23 45.4673L166.802 37.9923C167.169 37.6747 167.343 37.3767 167.325 37.0767C167.306 36.7768 167.138 36.454 166.821 36.087C166.672 35.9143 166.503 35.7414 166.311 35.611C166.12 35.4593 165.993 35.351 165.886 35.2858L157.314 42.7608C156.969 43.0358 156.795 43.3339 156.792 43.6122Z" fill="white"/>
</g>
<g filter="url(#filter19_d)">
<path d="M158.066 151.757C157.756 151.816 157.433 151.995 157.094 152.326C156.925 152.491 156.802 152.645 156.713 152.773C156.637 152.917 156.548 153.045 156.502 153.193C156.665 153.529 156.895 153.949 157.147 154.462C157.398 154.975 157.652 155.458 157.907 155.941L154.62 159.162L152.733 158.129C152.388 157.941 152.093 157.849 151.832 157.868C151.571 157.887 151.265 158.053 150.94 158.4C150.704 158.619 150.542 158.861 150.44 159.109C150.338 159.357 150.3 159.581 150.295 159.779C151.03 160.174 151.852 160.61 152.789 161.118C153.712 161.609 154.665 162.104 155.632 162.615C156.599 163.126 157.539 163.604 158.478 164.082C159.405 164.543 160.214 164.962 160.938 165.311C161.227 165.462 161.578 165.453 161.961 165.28C162.345 165.106 162.707 164.839 163.046 164.509C163.301 164.247 163.527 163.981 163.711 163.665C163.896 163.349 164.015 163.088 164.08 162.897C163.907 162.513 163.713 162.037 163.465 161.494C163.217 160.95 162.972 160.377 162.686 159.754C162.401 159.131 162.115 158.508 161.803 157.851C161.507 157.181 161.205 156.572 160.903 155.962C160.601 155.352 160.339 154.793 160.088 154.28C159.837 153.766 159.623 153.333 159.43 152.994C159.328 152.801 159.24 152.624 159.178 152.481C159.104 152.321 159.009 152.204 158.885 152.085C158.655 151.802 158.39 151.714 158.066 151.757ZM159.682 159.077C159.893 159.541 160.106 159.974 160.32 160.407C160.534 160.84 160.735 161.256 160.935 161.673C161.122 162.073 161.312 162.442 161.445 162.776L161.362 162.843L156.501 160.254L159.043 157.748C159.257 158.181 159.455 158.628 159.682 159.077Z" fill="white"/>
</g>
<g filter="url(#filter20_d)">
<path d="M51.6295 163.11C52.0512 162.464 52.4431 161.824 52.7985 161.237C53.166 160.632 53.4847 160.097 53.7615 159.585C54.0558 159.086 54.2715 158.662 54.4261 158.326C54.5374 158.091 54.5661 157.824 54.4595 157.489C54.3704 157.167 54.1866 156.831 53.9256 156.494C53.7052 156.211 53.2142 155.792 53.2142 155.792L52.617 155.376L51.7188 154.753C51.7188 154.753 50.8234 154.056 50.8475 154.359C50.8715 154.663 51.7292 156.024 51.9672 156.319C52.2511 156.698 52.181 156.955 52.5518 157.134C53.0821 157.476 52.9182 157.799 52.9182 157.799C52.9182 157.799 51.1884 157.619 51.7713 158.023L51.847 158.101C50.967 159.445 50.0815 160.76 49.2327 162.021C48.3662 163.271 47.4632 164.573 46.5479 165.893C46.3038 166.245 46.1789 166.575 46.18 166.836C46.1689 167.115 46.2824 167.402 46.5204 167.698C46.7178 167.939 46.9397 168.145 47.1927 168.268C47.4634 168.404 47.6935 168.485 47.8952 168.495C48.2721 168.026 48.668 167.493 49.0829 166.895C49.4978 166.296 49.925 165.681 50.3467 165.035C50.786 164.401 51.2077 163.756 51.6295 163.11Z" fill="white"/>
<path d="M51.3326 154.604C51.735 154.899 52.114 155.203 52.4585 155.485C52.8145 155.774 53.1245 156.033 53.3996 156.293C53.6865 156.537 53.904 156.759 54.064 156.943C54.1783 157.071 54.2336 157.262 54.1941 157.571C54.1665 157.861 54.0683 158.207 53.9115 158.592C53.7788 158.915 53.4566 159.472 53.4566 159.472L53.0532 160.078L52.4461 160.987C52.4461 160.987 51.8504 161.952 51.8308 161.707C51.8112 161.462 49.4167 165.118 49.5613 164.777C49.7304 164.349 48.5973 163.558 48.8577 163.243C49.2194 162.726 50.5465 160.535 50.5465 160.535C50.5465 160.535 51.6831 159.038 52.0771 158.448L52.1251 158.351C51.2857 157.739 50.446 157.152 49.6408 156.589C48.8237 156.043 47.9721 155.474 47.109 154.898C46.8788 154.744 46.7423 154.55 46.7104 154.348C46.667 154.139 46.7176 153.864 46.8622 153.523C46.9826 153.243 47.1261 152.979 47.3037 152.763C47.4931 152.529 47.6584 152.356 47.8111 152.252C48.1571 152.432 48.5258 152.652 48.917 152.913C49.3083 153.175 49.7111 153.444 50.1135 153.738C50.5278 154.015 50.9302 154.31 51.3326 154.604Z" fill="white"/>
</g>
<g filter="url(#filter21_d)">
<path d="M24.4814 131.504C25.1991 131.251 25.8907 130.985 26.5219 130.739C27.1733 130.487 27.7443 130.26 28.269 130.028C28.7998 129.815 29.224 129.616 29.5477 129.449C29.7769 129.333 29.9618 129.15 30.0845 128.843C30.2133 128.554 30.2777 128.204 30.2838 127.812C30.2879 127.482 30.1675 126.904 30.1675 126.904L29.964 126.271L29.6563 125.321C29.6563 125.321 29.3962 124.317 29.2293 124.556C29.0624 124.795 28.8881 126.274 28.89 126.623C28.8758 127.059 28.6649 127.213 28.8397 127.547C29.0373 128.088 28.7142 128.241 28.7142 128.241C28.7142 128.241 27.499 127.171 27.6987 127.787L27.7087 127.887C26.213 128.413 24.7313 128.915 23.31 129.397C21.8826 129.86 20.3949 130.343 18.8871 130.832C18.485 130.963 18.1875 131.141 18.0286 131.337C17.8497 131.539 17.7611 131.814 17.7631 132.163C17.767 132.45 17.8112 132.723 17.9297 132.952C18.0543 133.2 18.1809 133.385 18.3296 133.501C18.9046 133.355 19.5338 133.172 20.2173 132.95C20.9009 132.728 21.6045 132.5 22.3222 132.246C23.046 132.011 23.7637 131.758 24.4814 131.504Z" fill="white"/>
<path d="M29.4604 125.009C29.5886 125.446 29.6926 125.878 29.7843 126.274C29.8801 126.682 29.9595 127.042 30.0106 127.386C30.0817 127.722 30.1123 128.006 30.1222 128.229C30.1316 128.386 30.0569 128.559 29.8381 128.767C29.6393 128.969 29.3523 129.174 28.997 129.375C28.6976 129.545 28.1101 129.786 28.1101 129.786L27.4305 130.019L26.4094 130.368C26.4094 130.368 25.3629 130.765 25.4976 130.572C25.6323 130.379 21.5621 131.808 21.8815 131.632C22.2726 131.405 21.8881 130.203 22.2804 130.108C22.8735 129.919 25.2307 129.004 25.2307 129.004C25.2307 129.004 27.0171 128.503 27.6798 128.276L27.7757 128.23C27.507 127.32 27.2225 126.428 26.9503 125.573C26.6581 124.724 26.3536 123.84 26.045 122.943C25.9627 122.704 25.9768 122.486 26.0756 122.318C26.1703 122.139 26.3774 121.961 26.6967 121.785C26.9602 121.642 27.232 121.522 27.5001 121.457C27.7883 121.385 28.0206 121.346 28.2012 121.351C28.3564 121.672 28.504 122.036 28.6439 122.442C28.7838 122.849 28.9278 123.267 29.056 123.704C29.2041 124.134 29.3323 124.572 29.4604 125.009Z" fill="white"/>
</g>
<g filter="url(#filter22_d)">
<path d="M182.187 112.382L182.215 113.556L182.301 114.369L182.277 114.313L182.654 115.196C182.654 115.196 183.093 116.391 183.672 116.9C184.252 117.41 184.987 117.705 185.85 117.797C187.158 117.93 188.224 117.574 189.059 116.756C189.895 115.938 190.402 114.619 190.571 112.818C190.636 112.198 190.652 111.582 190.661 110.985C190.65 110.381 190.607 109.856 190.504 109.423C190.445 109.168 190.361 108.973 190.242 108.81C190.115 108.667 189.925 108.567 189.674 108.559L179.406 107.528C178.961 107.488 178.631 107.563 178.416 107.754C178.201 107.944 178.078 108.31 178.013 108.815C177.977 109.077 177.977 109.307 177.997 109.546C178.016 109.785 178.04 109.956 178.04 110.071L182.36 110.514L182.187 112.382ZM188.466 111.05C188.474 111.261 188.466 111.511 188.477 111.77C188.489 112.028 188.473 112.298 188.437 112.561C188.251 114.401 187.475 115.243 186.1 115.106C185.412 115.038 184.907 114.743 184.626 114.238C184.324 113.724 184.234 113.088 184.294 112.305L184.463 110.62L188.466 111.05Z" fill="white"/>
</g>
<g filter="url(#filter23_d)">
<path d="M182.591 133.398C183.026 133.598 183.374 133.621 183.635 133.467C183.895 133.313 184.109 133.032 184.312 132.567C184.412 132.349 184.482 132.129 184.539 131.891C184.595 131.654 184.629 131.49 184.659 131.356L177.376 128.195C176.577 127.848 176.081 127.367 175.83 126.745C175.608 126.127 175.634 125.475 175.938 124.793C176.241 124.11 176.689 123.642 177.31 123.39C177.919 123.122 178.628 123.185 179.414 123.515L185.693 126.246C186.128 126.446 186.475 126.469 186.736 126.315C186.98 126.174 187.21 125.88 187.41 125.445C187.51 125.227 187.58 125.007 187.637 124.769C187.694 124.532 187.727 124.368 187.74 124.248L180.371 121.046C179.701 120.759 179.063 120.613 178.441 120.59C177.819 120.567 177.227 120.685 176.652 120.927C176.078 121.168 175.58 121.54 175.112 122.052C174.645 122.564 174.258 123.176 173.931 123.932C173.604 124.688 173.417 125.414 173.375 126.079C173.315 126.758 173.413 127.393 173.608 127.978C173.802 128.563 174.127 129.071 174.566 129.515C175.004 129.959 175.573 130.327 176.225 130.627L182.591 133.398Z" fill="white"/>
</g>
<g filter="url(#filter24_d)">
<path d="M84.88 185.518C85.0036 184.85 85.6465 183.242 87.2627 183.147C86.5036 182.637 85.7292 181.807 85.3847 181.069C85.0402 180.332 84.9594 179.503 85.1117 178.62C85.3566 177.252 86.0311 176.281 87.0986 175.676C88.166 175.071 89.658 174.958 91.5293 175.287C92.1849 175.399 92.8098 175.547 93.404 175.732C94.0179 175.908 94.5251 176.108 94.9426 176.369C95.1851 176.497 95.3688 176.651 95.4653 176.819C95.5815 176.979 95.6081 177.201 95.5648 177.476L93.5812 188.148C93.4995 188.604 93.3188 188.939 93.0611 189.098C92.8034 189.257 92.4185 189.285 91.8585 189.178C91.5827 189.135 90.8571 189.04 90.6317 188.951L91.3994 184.264C91.3994 184.264 89.8213 183.846 89.4154 183.891C87.7088 184.08 87.341 185.283 87.341 185.283C87.2737 185.646 87.5107 185.784 87.5513 186.012C87.5919 186.241 88.2547 186.866 88.9102 187.057C89.2441 187.118 89.6269 187.246 90.8822 187.422C91.1754 187.612 91.167 189.162 90.6317 188.951L86.637 188.143C86.637 188.143 85.4644 187.639 85.2388 187.311C84.9667 186.915 84.7564 186.186 84.88 185.518ZM88.3183 180.889C88.7454 181.334 89.3628 181.625 90.1593 181.792L91.9068 182.105L92.6834 177.937C92.4665 177.868 92.2215 177.788 91.9568 177.717C91.6922 177.645 91.4275 177.573 91.1518 177.53C89.2438 177.17 88.1507 177.716 87.8836 179.14C87.7586 179.872 87.8998 180.464 88.3183 180.889Z" fill="white"/>
</g>
<g filter="url(#filter25_d)">
<path d="M81.4265 173.293C81.2325 173.043 80.9256 172.837 80.4775 172.686C80.2534 172.61 80.0599 172.572 79.9055 172.55C79.7425 172.548 79.5881 172.527 79.436 172.553C79.2105 172.852 78.9417 173.248 78.5992 173.705C78.2566 174.162 77.9423 174.608 77.628 175.055L73.2645 173.594L73.3255 171.444C73.3356 171.05 73.2828 170.746 73.1476 170.522C73.0124 170.299 72.725 170.101 72.2683 169.97C71.9659 169.859 71.6767 169.825 71.4094 169.848C71.1421 169.87 70.9248 169.938 70.7467 170.023C70.7288 170.858 70.7154 171.788 70.6893 172.853C70.6718 173.899 70.6652 174.973 70.65 176.066C70.6347 177.159 70.6368 178.214 70.6389 179.268C70.6496 180.303 70.6449 181.214 70.6639 182.018C70.6602 182.344 70.8282 182.652 71.1569 182.915C71.4857 183.177 71.8882 183.378 72.3363 183.53C72.6865 183.638 73.0258 183.717 73.391 183.738C73.7563 183.759 74.0432 183.746 74.2431 183.717C74.5055 183.388 74.8417 182.999 75.2125 182.531C75.5832 182.062 75.9823 181.583 76.4073 181.046C76.8323 180.508 77.2573 179.97 77.6996 179.393C78.1615 178.825 78.5669 178.279 78.9723 177.732C79.3777 177.186 79.7572 176.698 80.0998 176.241C80.4423 175.784 80.7307 175.396 80.9452 175.07C81.0709 174.891 81.188 174.732 81.2878 174.613C81.3962 174.473 81.4568 174.336 81.5065 174.171C81.6536 173.838 81.6118 173.562 81.4265 173.293ZM75.6427 178.063C75.3262 178.461 75.0378 178.849 74.7495 179.236C74.4611 179.624 74.1814 179.991 73.9017 180.359C73.6307 180.708 73.3879 181.045 73.1515 181.315L73.0536 181.272L73.147 175.765L76.536 176.889C76.2477 177.277 75.9397 177.656 75.6427 178.063Z" fill="white"/>
</g>
<g filter="url(#filter26_d)">
<path d="M169.052 154.306C168.524 153.879 167.416 152.549 168.101 151.082C167.291 151.507 166.192 151.793 165.38 151.745C164.567 151.697 163.8 151.374 163.095 150.819C162.009 149.953 161.476 148.898 161.452 147.671C161.428 146.444 162.038 145.078 163.219 143.589C163.629 143.066 164.056 142.586 164.502 142.152C164.949 141.696 165.366 141.345 165.795 141.102C166.022 140.95 166.245 140.861 166.439 140.856C166.634 140.83 166.842 140.912 167.064 141.082L175.506 147.905C175.868 148.193 176.077 148.512 176.094 148.814C176.111 149.116 175.952 149.468 175.592 149.91C175.423 150.132 174.994 150.725 174.809 150.881L171.052 147.975C171.052 147.975 169.933 149.164 169.779 149.542C169.134 151.134 170.016 152.029 170.016 152.029C170.304 152.262 170.538 152.119 170.758 152.192C170.979 152.265 171.844 151.979 172.323 151.493C172.537 151.229 172.83 150.953 173.583 149.933C173.89 149.766 175.249 150.51 174.809 150.881L172.197 154.009C172.197 154.009 171.196 154.801 170.8 154.844C170.323 154.895 169.581 154.732 169.052 154.306ZM166.617 149.079C167.211 148.915 167.762 148.511 168.287 147.89L169.394 146.502L166.098 143.835C165.934 143.993 165.747 144.17 165.558 144.369C165.37 144.568 165.181 144.767 165.011 144.989C163.787 146.495 163.747 147.717 164.872 148.629C165.456 149.087 166.044 149.245 166.617 149.079Z" fill="white"/>
</g>
<g filter="url(#filter27_d)">
<path d="M128.469 175.3C129.272 175.791 130.928 177.141 131.804 177.695C131.583 178.478 131.553 180.314 131.553 180.314C131.553 180.314 131.55 183.804 132.211 184.048C133.362 184.473 134.68 183.97 134.68 183.97L138.192 182.698C138.879 182.601 139.458 182.388 139.841 182.098C140.06 181.933 140.216 181.752 140.284 181.57C140.373 181.394 140.364 181.171 140.276 180.906L136.597 170.693C136.443 170.257 136.211 169.955 135.931 169.839C135.651 169.724 135.266 169.759 134.731 169.954C134.466 170.042 134.237 170.16 134.029 170.284C133.82 170.408 133.664 170.501 133.534 170.578L135.07 174.878L133.173 175.567L129.641 172.947C129.305 172.706 128.999 172.518 128.693 172.419C128.413 172.303 128.055 172.323 127.618 172.477C127.301 172.595 127.03 172.791 126.821 173.092C126.612 173.392 126.528 173.724 126.537 174.124C127.045 174.385 127.671 174.788 128.469 175.3ZM134.59 177.409L135.919 176.927L137.358 180.915C137.358 180.915 137.941 182.702 138.192 182.698L134.68 183.97C134.68 183.97 135.143 185.25 134.65 183.887L134.59 177.409Z" fill="white"/>
</g>
<g filter="url(#filter28_d)">
<path d="M121.106 173.928L115.011 175.159C114.392 175.287 114.158 175.708 114.292 176.433C114.334 176.65 114.409 176.839 114.5 177.014C114.591 177.189 114.687 177.304 114.77 177.402L120.369 176.28L121.008 179.405L116.738 180.279C116.119 180.407 115.884 180.827 116.019 181.553C116.061 181.77 116.135 181.958 116.229 182.103C116.323 182.248 116.416 182.393 116.515 182.478L121.435 181.479L122.021 184.341L117.148 185.329C116.869 185.396 116.661 185.515 116.549 185.748C116.424 185.965 116.398 186.267 116.476 186.593C116.518 186.809 116.592 186.998 116.67 187.157C116.761 187.332 116.857 187.446 116.94 187.545L123.607 186.196C124.04 186.113 124.346 185.911 124.553 185.626C124.747 185.323 124.808 184.964 124.725 184.531L122.815 175.065C122.731 174.632 122.53 174.326 122.244 174.118C121.898 173.906 121.539 173.844 121.106 173.928Z" fill="white"/>
</g>
<defs>
<filter id="filter0_d" x="0" y="0.559143" width="204.28" height="204.28" filterUnits="userSpaceOnUse" color-interpolation-filters="sRGB">
<feFlood flood-opacity="0" result="BackgroundImageFix"/>
<feColorMatrix in="SourceAlpha" type="matrix" values="0 0 0 0 0 0 0 0 0 0 0 0 0 0 0 0 0 0 127 0" result="hardAlpha"/>
<feOffset dy="4"/>
<feGaussianBlur stdDeviation="2"/>
<feColorMatrix type="matrix" values="0 0 0 0 0 0 0 0 0 0 0 0 0 0 0 0 0 0 0.25 0"/>
<feBlend mode="normal" in2="BackgroundImageFix" result="effect1_dropShadow"/>
<feBlend mode="normal" in="SourceGraphic" in2="effect1_dropShadow" result="shape"/>
</filter>
<filter id="filter1_d" x="0" y="0.559143" width="204.28" height="204.28" filterUnits="userSpaceOnUse" color-interpolation-filters="sRGB">
<feFlood flood-opacity="0" result="BackgroundImageFix"/>
<feColorMatrix in="SourceAlpha" type="matrix" values="0 0 0 0 0 0 0 0 0 0 0 0 0 0 0 0 0 0 127 0" result="hardAlpha"/>
<feOffset dy="4"/>
<feGaussianBlur stdDeviation="2"/>
<feComposite in2="hardAlpha" operator="out"/>
<feColorMatrix type="matrix" values="0 0 0 0 0 0 0 0 0 0 0 0 0 0 0 0 0 0 0.25 0"/>
<feBlend mode="normal" in2="BackgroundImageFix" result="effect1_dropShadow"/>
<feBlend mode="normal" in="SourceGraphic" in2="effect1_dropShadow" result="shape"/>
</filter>
<filter id="filter2_d" x="4.26172" y="10.2574" width="187.014" height="174.975" filterUnits="userSpaceOnUse" color-interpolation-filters="sRGB">
<feFlood flood-opacity="0" result="BackgroundImageFix"/>
<feColorMatrix in="SourceAlpha" type="matrix" values="0 0 0 0 0 0 0 0 0 0 0 0 0 0 0 0 0 0 127 0" result="hardAlpha"/>
<feOffset dy="4"/>
<feGaussianBlur stdDeviation="2"/>
<feComposite in2="hardAlpha" operator="out"/>
<feColorMatrix type="matrix" values="0 0 0 0 0 0 0 0 0 0 0 0 0 0 0 0 0 0 0.25 0"/>
<feBlend mode="normal" in2="BackgroundImageFix" result="effect1_dropShadow"/>
<feBlend mode="normal" in="SourceGraphic" in2="effect1_dropShadow" result="shape"/>
</filter>
<filter id="filter3_d" x="159.078" y="41.5419" width="22.5029" height="21.8021" filterUnits="userSpaceOnUse" color-interpolation-filters="sRGB">
<feFlood flood-opacity="0" result="BackgroundImageFix"/>
<feColorMatrix in="SourceAlpha" type="matrix" values="0 0 0 0 0 0 0 0 0 0 0 0 0 0 0 0 0 0 127 0" result="hardAlpha"/>
<feOffset dy="4"/>
<feGaussianBlur stdDeviation="2"/>
<feComposite in2="hardAlpha" operator="out"/>
<feColorMatrix type="matrix" values="0 0 0 0 0 0 0 0 0 0 0 0 0 0 0 0 0 0 0.25 0"/>
<feBlend mode="normal" in2="BackgroundImageFix" result="effect1_dropShadow"/>
<feBlend mode="normal" in="SourceGraphic" in2="effect1_dropShadow" result="shape"/>
</filter>
<filter id="filter4_d" x="139.514" y="23.8326" width="23.6132" height="24.1686" filterUnits="userSpaceOnUse" color-interpolation-filters="sRGB">
<feFlood flood-opacity="0" result="BackgroundImageFix"/>
<feColorMatrix in="SourceAlpha" type="matrix" values="0 0 0 0 0 0 0 0 0 0 0 0 0 0 0 0 0 0 127 0" result="hardAlpha"/>
<feOffset dy="4"/>
<feGaussianBlur stdDeviation="2"/>
<feComposite in2="hardAlpha" operator="out"/>
<feColorMatrix type="matrix" values="0 0 0 0 0 0 0 0 0 0 0 0 0 0 0 0 0 0 0.25 0"/>
<feBlend mode="normal" in2="BackgroundImageFix" result="effect1_dropShadow"/>
<feBlend mode="normal" in="SourceGraphic" in2="effect1_dropShadow" result="shape"/>
</filter>
<filter id="filter5_d" x="164.709" y="52.1826" width="26.5663" height="27.1694" filterUnits="userSpaceOnUse" color-interpolation-filters="sRGB">
<feFlood flood-opacity="0" result="BackgroundImageFix"/>
<feColorMatrix in="SourceAlpha" type="matrix" values="0 0 0 0 0 0 0 0 0 0 0 0 0 0 0 0 0 0 127 0" result="hardAlpha"/>
<feOffset dy="4"/>
<feGaussianBlur stdDeviation="2"/>
<feComposite in2="hardAlpha" operator="out"/>
<feColorMatrix type="matrix" values="0 0 0 0 0 0 0 0 0 0 0 0 0 0 0 0 0 0 0.25 0"/>
<feBlend mode="normal" in2="BackgroundImageFix" result="effect1_dropShadow"/>
<feBlend mode="normal" in="SourceGraphic" in2="effect1_dropShadow" result="shape"/>
</filter>
<filter id="filter6_d" x="4.26172" y="87.0699" width="27.446" height="27.0085" filterUnits="userSpaceOnUse" color-interpolation-filters="sRGB">
<feFlood flood-opacity="0" result="BackgroundImageFix"/>
<feColorMatrix in="SourceAlpha" type="matrix" values="0 0 0 0 0 0 0 0 0 0 0 0 0 0 0 0 0 0 127 0" result="hardAlpha"/>
<feOffset dy="4"/>
<feGaussianBlur stdDeviation="2"/>
<feComposite in2="hardAlpha" operator="out"/>
<feColorMatrix type="matrix" values="0 0 0 0 0 0 0 0 0 0 0 0 0 0 0 0 0 0 0.25 0"/>
<feBlend mode="normal" in2="BackgroundImageFix" result="effect1_dropShadow"/>
<feBlend mode="normal" in="SourceGraphic" in2="effect1_dropShadow" result="shape"/>
</filter>
<filter id="filter7_d" x="93.7266" y="175.785" width="25.8735" height="26.0385" filterUnits="userSpaceOnUse" color-interpolation-filters="sRGB">
<feFlood flood-opacity="0" result="BackgroundImageFix"/>
<feColorMatrix in="SourceAlpha" type="matrix" values="0 0 0 0 0 0 0 0 0 0 0 0 0 0 0 0 0 0 127 0" result="hardAlpha"/>
<feOffset dy="4"/>
<feGaussianBlur stdDeviation="2"/>
<feComposite in2="hardAlpha" operator="out"/>
<feColorMatrix type="matrix" values="0 0 0 0 0 0 0 0 0 0 0 0 0 0 0 0 0 0 0.25 0"/>
<feBlend mode="normal" in2="BackgroundImageFix" result="effect1_dropShadow"/>
<feBlend mode="normal" in="SourceGraphic" in2="effect1_dropShadow" result="shape"/>
</filter>
<filter id="filter8_d" x="54.002" y="161.078" width="16.1548" height="24.1603" filterUnits="userSpaceOnUse" color-interpolation-filters="sRGB">
<feFlood flood-opacity="0" result="BackgroundImageFix"/>
<feColorMatrix in="SourceAlpha" type="matrix" values="0 0 0 0 0 0 0 0 0 0 0 0 0 0 0 0 0 0 127 0" result="hardAlpha"/>
<feOffset dy="4"/>
<feGaussianBlur stdDeviation="2"/>
<feComposite in2="hardAlpha" operator="out"/>
<feColorMatrix type="matrix" values="0 0 0 0 0 0 0 0 0 0 0 0 0 0 0 0 0 0 0.25 0"/>
<feBlend mode="normal" in2="BackgroundImageFix" result="effect1_dropShadow"/>
<feBlend mode="normal" in="SourceGraphic" in2="effect1_dropShadow" result="shape"/>
</filter>
<filter id="filter9_d" x="112.467" y="10.6515" width="23.3875" height="24.6276" filterUnits="userSpaceOnUse" color-interpolation-filters="sRGB">
<feFlood flood-opacity="0" result="BackgroundImageFix"/>
<feColorMatrix in="SourceAlpha" type="matrix" values="0 0 0 0 0 0 0 0 0 0 0 0 0 0 0 0 0 0 127 0" result="hardAlpha"/>
<feOffset dy="4"/>
<feGaussianBlur stdDeviation="2"/>
<feComposite in2="hardAlpha" operator="out"/>
<feColorMatrix type="matrix" values="0 0 0 0 0 0 0 0 0 0 0 0 0 0 0 0 0 0 0.25 0"/>
<feBlend mode="normal" in2="BackgroundImageFix" result="effect1_dropShadow"/>
<feBlend mode="normal" in="SourceGraphic" in2="effect1_dropShadow" result="shape"/>
</filter>
<filter id="filter10_d" x="98.9336" y="7.6875" width="21.1806" height="23.4384" filterUnits="userSpaceOnUse" color-interpolation-filters="sRGB">
<feFlood flood-opacity="0" result="BackgroundImageFix"/>
<feColorMatrix in="SourceAlpha" type="matrix" values="0 0 0 0 0 0 0 0 0 0 0 0 0 0 0 0 0 0 127 0" result="hardAlpha"/>
<feOffset dy="4"/>
<feGaussianBlur stdDeviation="2"/>
<feComposite in2="hardAlpha" operator="out"/>
<feColorMatrix type="matrix" values="0 0 0 0 0 0 0 0 0 0 0 0 0 0 0 0 0 0 0.25 0"/>
<feBlend mode="normal" in2="BackgroundImageFix" result="effect1_dropShadow"/>
<feBlend mode="normal" in="SourceGraphic" in2="effect1_dropShadow" result="shape"/>
</filter>
<filter id="filter11_d" x="66.7441" y="8.15021" width="29.7061" height="29.6329" filterUnits="userSpaceOnUse" color-interpolation-filters="sRGB">
<feFlood flood-opacity="0" result="BackgroundImageFix"/>
<feColorMatrix in="SourceAlpha" type="matrix" values="0 0 0 0 0 0 0 0 0 0 0 0 0 0 0 0 0 0 127 0" result="hardAlpha"/>
<feOffset dy="4"/>
<feGaussianBlur stdDeviation="2"/>
<feComposite in2="hardAlpha" operator="out"/>
<feColorMatrix type="matrix" values="0 0 0 0 0 0 0 0 0 0 0 0 0 0 0 0 0 0 0.25 0"/>
<feBlend mode="normal" in2="BackgroundImageFix" result="effect1_dropShadow"/>
<feBlend mode="normal" in="SourceGraphic" in2="effect1_dropShadow" result="shape"/>
</filter>
<filter id="filter12_d" x="15.9141" y="53.293" width="25.3391" height="24.7923" filterUnits="userSpaceOnUse" color-interpolation-filters="sRGB">
<feFlood flood-opacity="0" result="BackgroundImageFix"/>
<feColorMatrix in="SourceAlpha" type="matrix" values="0 0 0 0 0 0 0 0 0 0 0 0 0 0 0 0 0 0 127 0" result="hardAlpha"/>
<feOffset dy="4"/>
<feGaussianBlur stdDeviation="2"/>
<feComposite in2="hardAlpha" operator="out"/>
<feColorMatrix type="matrix" values="0 0 0 0 0 0 0 0 0 0 0 0 0 0 0 0 0 0 0.25 0"/>
<feBlend mode="normal" in2="BackgroundImageFix" result="effect1_dropShadow"/>
<feBlend mode="normal" in="SourceGraphic" in2="effect1_dropShadow" result="shape"/>
</filter>
<filter id="filter13_d" x="173.674" y="89.9819" width="22.2377" height="20.6896" filterUnits="userSpaceOnUse" color-interpolation-filters="sRGB">
<feFlood flood-opacity="0" result="BackgroundImageFix"/>
<feColorMatrix in="SourceAlpha" type="matrix" values="0 0 0 0 0 0 0 0 0 0 0 0 0 0 0 0 0 0 127 0" result="hardAlpha"/>
<feOffset dy="4"/>
<feGaussianBlur stdDeviation="2"/>
<feComposite in2="hardAlpha" operator="out"/>
<feColorMatrix type="matrix" values="0 0 0 0 0 0 0 0 0 0 0 0 0 0 0 0 0 0 0.25 0"/>
<feBlend mode="normal" in2="BackgroundImageFix" result="effect1_dropShadow"/>
<feBlend mode="normal" in="SourceGraphic" in2="effect1_dropShadow" result="shape"/>
</filter>
<filter id="filter14_d" x="25.3867" y="42.8148" width="19.2614" height="21.2157" filterUnits="userSpaceOnUse" color-interpolation-filters="sRGB">
<feFlood flood-opacity="0" result="BackgroundImageFix"/>
<feColorMatrix in="SourceAlpha" type="matrix" values="0 0 0 0 0 0 0 0 0 0 0 0 0 0 0 0 0 0 127 0" result="hardAlpha"/>
<feOffset dy="4"/>
<feGaussianBlur stdDeviation="2"/>
<feComposite in2="hardAlpha" operator="out"/>
<feColorMatrix type="matrix" values="0 0 0 0 0 0 0 0 0 0 0 0 0 0 0 0 0 0 0.25 0"/>
<feBlend mode="normal" in2="BackgroundImageFix" result="effect1_dropShadow"/>
<feBlend mode="normal" in="SourceGraphic" in2="effect1_dropShadow" result="shape"/>
</filter>
<filter id="filter15_d" x="32.6074" y="29.5524" width="24.9388" height="25.4364" filterUnits="userSpaceOnUse" color-interpolation-filters="sRGB">
<feFlood flood-opacity="0" result="BackgroundImageFix"/>
<feColorMatrix in="SourceAlpha" type="matrix" values="0 0 0 0 0 0 0 0 0 0 0 0 0 0 0 0 0 0 127 0" result="hardAlpha"/>
<feOffset dy="4"/>
<feGaussianBlur stdDeviation="2"/>
<feComposite in2="hardAlpha" operator="out"/>
<feColorMatrix type="matrix" values="0 0 0 0 0 0 0 0 0 0 0 0 0 0 0 0 0 0 0.25 0"/>
<feBlend mode="normal" in2="BackgroundImageFix" result="effect1_dropShadow"/>
<feBlend mode="normal" in="SourceGraphic" in2="effect1_dropShadow" result="shape"/>
</filter>
<filter id="filter16_d" x="54.291" y="16.6539" width="22.3455" height="23.022" filterUnits="userSpaceOnUse" color-interpolation-filters="sRGB">
<feFlood flood-opacity="0" result="BackgroundImageFix"/>
<feColorMatrix in="SourceAlpha" type="matrix" values="0 0 0 0 0 0 0 0 0 0 0 0 0 0 0 0 0 0 127 0" result="hardAlpha"/>
<feOffset dy="4"/>
<feGaussianBlur stdDeviation="2"/>
<feComposite in2="hardAlpha" operator="out"/>
<feColorMatrix type="matrix" values="0 0 0 0 0 0 0 0 0 0 0 0 0 0 0 0 0 0 0.25 0"/>
<feBlend mode="normal" in2="BackgroundImageFix" result="effect1_dropShadow"/>
<feBlend mode="normal" in="SourceGraphic" in2="effect1_dropShadow" result="shape"/>
</filter>
<filter id="filter17_d" x="124.66" y="14.4638" width="28.0662" height="28.2961" filterUnits="userSpaceOnUse" color-interpolation-filters="sRGB">
<feFlood flood-opacity="0" result="BackgroundImageFix"/>
<feColorMatrix in="SourceAlpha" type="matrix" values="0 0 0 0 0 0 0 0 0 0 0 0 0 0 0 0 0 0 127 0" result="hardAlpha"/>
<feOffset dy="4"/>
<feGaussianBlur stdDeviation="2"/>
<feComposite in2="hardAlpha" operator="out"/>
<feColorMatrix type="matrix" values="0 0 0 0 0 0 0 0 0 0 0 0 0 0 0 0 0 0 0.25 0"/>
<feBlend mode="normal" in2="BackgroundImageFix" result="effect1_dropShadow"/>
<feBlend mode="normal" in="SourceGraphic" in2="effect1_dropShadow" result="shape"/>
</filter>
<filter id="filter18_d" x="152.773" y="35.1987" width="18.5695" height="18.3557" filterUnits="userSpaceOnUse" color-interpolation-filters="sRGB">
<feFlood flood-opacity="0" result="BackgroundImageFix"/>
<feColorMatrix in="SourceAlpha" type="matrix" values="0 0 0 0 0 0 0 0 0 0 0 0 0 0 0 0 0 0 127 0" result="hardAlpha"/>
<feOffset dy="4"/>
<feGaussianBlur stdDeviation="2"/>
<feComposite in2="hardAlpha" operator="out"/>
<feColorMatrix type="matrix" values="0 0 0 0 0 0 0 0 0 0 0 0 0 0 0 0 0 0 0.25 0"/>
<feBlend mode="normal" in2="BackgroundImageFix" result="effect1_dropShadow"/>
<feBlend mode="normal" in="SourceGraphic" in2="effect1_dropShadow" result="shape"/>
</filter>
<filter id="filter19_d" x="145.342" y="151.335" width="25.3009" height="25.5503" filterUnits="userSpaceOnUse" color-interpolation-filters="sRGB">
<feFlood flood-opacity="0" result="BackgroundImageFix"/>
<feColorMatrix in="SourceAlpha" type="matrix" values="0 0 0 0 0 0 0 0 0 0 0 0 0 0 0 0 0 0 127 0" result="hardAlpha"/>
<feOffset dy="4"/>
<feGaussianBlur stdDeviation="2"/>
<feComposite in2="hardAlpha" operator="out"/>
<feColorMatrix type="matrix" values="0 0 0 0 0 0 0 0 0 0 0 0 0 0 0 0 0 0 0.25 0"/>
<feBlend mode="normal" in2="BackgroundImageFix" result="effect1_dropShadow"/>
<feBlend mode="normal" in="SourceGraphic" in2="effect1_dropShadow" result="shape"/>
</filter>
<filter id="filter20_d" x="42.1797" y="152.252" width="16.3469" height="24.2427" filterUnits="userSpaceOnUse" color-interpolation-filters="sRGB">
<feFlood flood-opacity="0" result="BackgroundImageFix"/>
<feColorMatrix in="SourceAlpha" type="matrix" values="0 0 0 0 0 0 0 0 0 0 0 0 0 0 0 0 0 0 127 0" result="hardAlpha"/>
<feOffset dy="4"/>
<feGaussianBlur stdDeviation="2"/>
<feComposite in2="hardAlpha" operator="out"/>
<feColorMatrix type="matrix" values="0 0 0 0 0 0 0 0 0 0 0 0 0 0 0 0 0 0 0.25 0"/>
<feBlend mode="normal" in2="BackgroundImageFix" result="effect1_dropShadow"/>
<feBlend mode="normal" in="SourceGraphic" in2="effect1_dropShadow" result="shape"/>
</filter>
<filter id="filter21_d" x="13.7637" y="121.351" width="20.5209" height="20.1503" filterUnits="userSpaceOnUse" color-interpolation-filters="sRGB">
<feFlood flood-opacity="0" result="BackgroundImageFix"/>
<feColorMatrix in="SourceAlpha" type="matrix" values="0 0 0 0 0 0 0 0 0 0 0 0 0 0 0 0 0 0 127 0" result="hardAlpha"/>
<feOffset dy="4"/>
<feGaussianBlur stdDeviation="2"/>
<feComposite in2="hardAlpha" operator="out"/>
<feColorMatrix type="matrix" values="0 0 0 0 0 0 0 0 0 0 0 0 0 0 0 0 0 0 0.25 0"/>
<feBlend mode="normal" in2="BackgroundImageFix" result="effect1_dropShadow"/>
<feBlend mode="normal" in="SourceGraphic" in2="effect1_dropShadow" result="shape"/>
</filter>
<filter id="filter22_d" x="173.984" y="107.518" width="20.6774" height="18.3069" filterUnits="userSpaceOnUse" color-interpolation-filters="sRGB">
<feFlood flood-opacity="0" result="BackgroundImageFix"/>
<feColorMatrix in="SourceAlpha" type="matrix" values="0 0 0 0 0 0 0 0 0 0 0 0 0 0 0 0 0 0 127 0" result="hardAlpha"/>
<feOffset dy="4"/>
<feGaussianBlur stdDeviation="2"/>
<feComposite in2="hardAlpha" operator="out"/>
<feColorMatrix type="matrix" values="0 0 0 0 0 0 0 0 0 0 0 0 0 0 0 0 0 0 0.25 0"/>
<feBlend mode="normal" in2="BackgroundImageFix" result="effect1_dropShadow"/>
<feBlend mode="normal" in="SourceGraphic" in2="effect1_dropShadow" result="shape"/>
</filter>
<filter id="filter23_d" x="169.357" y="120.587" width="22.3825" height="20.9802" filterUnits="userSpaceOnUse" color-interpolation-filters="sRGB">
<feFlood flood-opacity="0" result="BackgroundImageFix"/>
<feColorMatrix in="SourceAlpha" type="matrix" values="0 0 0 0 0 0 0 0 0 0 0 0 0 0 0 0 0 0 127 0" result="hardAlpha"/>
<feOffset dy="4"/>
<feGaussianBlur stdDeviation="2"/>
<feComposite in2="hardAlpha" operator="out"/>
<feColorMatrix type="matrix" values="0 0 0 0 0 0 0 0 0 0 0 0 0 0 0 0 0 0 0.25 0"/>
<feBlend mode="normal" in2="BackgroundImageFix" result="effect1_dropShadow"/>
<feBlend mode="normal" in="SourceGraphic" in2="effect1_dropShadow" result="shape"/>
</filter>
<filter id="filter24_d" x="77.2383" y="172.772" width="26.3537" height="26.9253" filterUnits="userSpaceOnUse" color-interpolation-filters="sRGB">
<feFlood flood-opacity="0" result="BackgroundImageFix"/>
<feColorMatrix in="SourceAlpha" type="matrix" values="0 0 0 0 0 0 0 0 0 0 0 0 0 0 0 0 0 0 127 0" result="hardAlpha"/>
<feOffset dy="4"/>
<feGaussianBlur stdDeviation="2"/>
<feComposite in2="hardAlpha" operator="out"/>
<feColorMatrix type="matrix" values="0 0 0 0 0 0 0 0 0 0 0 0 0 0 0 0 0 0 0.25 0"/>
<feBlend mode="normal" in2="BackgroundImageFix" result="effect1_dropShadow"/>
<feBlend mode="normal" in="SourceGraphic" in2="effect1_dropShadow" result="shape"/>
</filter>
<filter id="filter25_d" x="66.6367" y="169.841" width="18.9578" height="21.9075" filterUnits="userSpaceOnUse" color-interpolation-filters="sRGB">
<feFlood flood-opacity="0" result="BackgroundImageFix"/>
<feColorMatrix in="SourceAlpha" type="matrix" values="0 0 0 0 0 0 0 0 0 0 0 0 0 0 0 0 0 0 127 0" result="hardAlpha"/>
<feOffset dy="4"/>
<feGaussianBlur stdDeviation="2"/>
<feComposite in2="hardAlpha" operator="out"/>
<feColorMatrix type="matrix" values="0 0 0 0 0 0 0 0 0 0 0 0 0 0 0 0 0 0 0.25 0"/>
<feBlend mode="normal" in2="BackgroundImageFix" result="effect1_dropShadow"/>
<feBlend mode="normal" in="SourceGraphic" in2="effect1_dropShadow" result="shape"/>
</filter>
<filter id="filter26_d" x="156.889" y="140.468" width="23.8197" height="22.8132" filterUnits="userSpaceOnUse" color-interpolation-filters="sRGB">
<feFlood flood-opacity="0" result="BackgroundImageFix"/>
<feColorMatrix in="SourceAlpha" type="matrix" values="0 0 0 0 0 0 0 0 0 0 0 0 0 0 0 0 0 0 127 0" result="hardAlpha"/>
<feOffset dy="4"/>
<feGaussianBlur stdDeviation="2"/>
<feComposite in2="hardAlpha" operator="out"/>
<feColorMatrix type="matrix" values="0 0 0 0 0 0 0 0 0 0 0 0 0 0 0 0 0 0 0.25 0"/>
<feBlend mode="normal" in2="BackgroundImageFix" result="effect1_dropShadow"/>
<feBlend mode="normal" in="SourceGraphic" in2="effect1_dropShadow" result="shape"/>
</filter>
<filter id="filter27_d" x="122.537" y="169.774" width="21.8105" height="22.7416" filterUnits="userSpaceOnUse" color-interpolation-filters="sRGB">
<feFlood flood-opacity="0" result="BackgroundImageFix"/>
<feColorMatrix in="SourceAlpha" type="matrix" values="0 0 0 0 0 0 0 0 0 0 0 0 0 0 0 0 0 0 127 0" result="hardAlpha"/>
<feOffset dy="4"/>
<feGaussianBlur stdDeviation="2"/>
<feComposite in2="hardAlpha" operator="out"/>
<feColorMatrix type="matrix" values="0 0 0 0 0 0 0 0 0 0 0 0 0 0 0 0 0 0 0.25 0"/>
<feBlend mode="normal" in2="BackgroundImageFix" result="effect1_dropShadow"/>
<feBlend mode="normal" in="SourceGraphic" in2="effect1_dropShadow" result="shape"/>
</filter>
<filter id="filter28_d" x="105.951" y="171.031" width="26.9728" height="27.1693" filterUnits="userSpaceOnUse" color-interpolation-filters="sRGB">
<feFlood flood-opacity="0" result="BackgroundImageFix"/>
<feColorMatrix in="SourceAlpha" type="matrix" values="0 0 0 0 0 0 0 0 0 0 0 0 0 0 0 0 0 0 127 0" result="hardAlpha"/>
<feOffset dy="4"/>
<feGaussianBlur stdDeviation="2"/>
<feComposite in2="hardAlpha" operator="out"/>
<feColorMatrix type="matrix" values="0 0 0 0 0 0 0 0 0 0 0 0 0 0 0 0 0 0 0.25 0"/>
<feBlend mode="normal" in2="BackgroundImageFix" result="effect1_dropShadow"/>
<feBlend mode="normal" in="SourceGraphic" in2="effect1_dropShadow" result="shape"/>
</filter>
</defs>
</svg>
