<svg width="196" height="74" viewBox="0 0 196 74" fill="none" xmlns="http://www.w3.org/2000/svg">
<rect x="0.5" y="0.5" width="195" height="73" rx="3.5" stroke="#D15327" stroke-opacity="0.67"/>
<path d="M40.812 47L37.032 41.54H36.808H32.86V47H28.324V27.4H36.808C38.544 27.4 40.0467 27.6893 41.316 28.268C42.604 28.8467 43.5933 29.668 44.284 30.732C44.9747 31.796 45.32 33.056 45.32 34.512C45.32 35.968 44.9653 37.228 44.256 38.292C43.5653 39.3373 42.576 40.14 41.288 40.7L45.684 47H40.812ZM40.728 34.512C40.728 33.4107 40.3733 32.5707 39.664 31.992C38.9547 31.3947 37.9187 31.096 36.556 31.096H32.86V37.928H36.556C37.9187 37.928 38.9547 37.6293 39.664 37.032C40.3733 36.4347 40.728 35.5947 40.728 34.512ZM64.0898 43.36V47H48.9138V27.4H63.7258V31.04H53.4218V35.296H62.5218V38.824H53.4218V43.36H64.0898ZM80.8883 36.892H85.0323V44.844C83.9683 45.6467 82.7363 46.2627 81.3363 46.692C79.9363 47.1213 78.527 47.336 77.1083 47.336C75.0736 47.336 73.2443 46.9067 71.6203 46.048C69.9963 45.1707 68.7176 43.9667 67.7843 42.436C66.8696 40.8867 66.4123 39.1413 66.4123 37.2C66.4123 35.2587 66.8696 33.5227 67.7843 31.992C68.7176 30.4427 70.0056 29.2387 71.6483 28.38C73.291 27.5027 75.139 27.064 77.1923 27.064C78.9096 27.064 80.4683 27.3533 81.8683 27.932C83.2683 28.5107 84.4443 29.3507 85.3963 30.452L82.4843 33.14C81.0843 31.6653 79.395 30.928 77.4163 30.928C76.1656 30.928 75.055 31.1893 74.0843 31.712C73.1136 32.2347 72.3576 32.972 71.8163 33.924C71.275 34.876 71.0043 35.968 71.0043 37.2C71.0043 38.4133 71.275 39.496 71.8163 40.448C72.3576 41.4 73.1043 42.1467 74.0563 42.688C75.027 43.2107 76.1283 43.472 77.3603 43.472C78.667 43.472 79.843 43.192 80.8883 42.632V36.892ZM89.2459 27.4H93.7819V47H89.2459V27.4ZM104.873 47.336C103.324 47.336 101.821 47.1307 100.365 46.72C98.928 46.2907 97.7707 45.74 96.8934 45.068L98.4334 41.652C99.2734 42.268 100.272 42.7627 101.429 43.136C102.587 43.5093 103.744 43.696 104.901 43.696C106.189 43.696 107.141 43.5093 107.757 43.136C108.373 42.744 108.681 42.2307 108.681 41.596C108.681 41.1293 108.495 40.7467 108.121 40.448C107.767 40.1307 107.3 39.8787 106.721 39.692C106.161 39.5053 105.396 39.3 104.425 39.076C102.932 38.7213 101.709 38.3667 100.757 38.012C99.8054 37.6573 98.984 37.088 98.2934 36.304C97.6214 35.52 97.2854 34.4747 97.2854 33.168C97.2854 32.0293 97.5934 31.0027 98.2094 30.088C98.8254 29.1547 99.7494 28.4173 100.981 27.876C102.232 27.3347 103.753 27.064 105.545 27.064C106.796 27.064 108.019 27.2133 109.213 27.512C110.408 27.8107 111.453 28.24 112.349 28.8L110.949 32.244C109.139 31.2173 107.328 30.704 105.517 30.704C104.248 30.704 103.305 30.9093 102.689 31.32C102.092 31.7307 101.793 32.272 101.793 32.944C101.793 33.616 102.139 34.12 102.829 34.456C103.539 34.7733 104.612 35.0907 106.049 35.408C107.543 35.7627 108.765 36.1173 109.717 36.472C110.669 36.8267 111.481 37.3867 112.153 38.152C112.844 38.9173 113.189 39.9533 113.189 41.26C113.189 42.38 112.872 43.4067 112.237 44.34C111.621 45.2547 110.688 45.9827 109.437 46.524C108.187 47.0653 106.665 47.336 104.873 47.336ZM120.075 31.096H113.803V27.4H130.883V31.096H124.611V47H120.075V31.096ZM148.5 43.36V47H133.324V27.4H148.136V31.04H137.832V35.296H146.932V38.824H137.832V43.36H148.5ZM164.597 47L160.817 41.54H160.593H156.645V47H152.109V27.4H160.593C162.329 27.4 163.832 27.6893 165.101 28.268C166.389 28.8467 167.378 29.668 168.069 30.732C168.76 31.796 169.105 33.056 169.105 34.512C169.105 35.968 168.75 37.228 168.041 38.292C167.35 39.3373 166.361 40.14 165.073 40.7L169.469 47H164.597ZM164.513 34.512C164.513 33.4107 164.158 32.5707 163.449 31.992C162.74 31.3947 161.704 31.096 160.341 31.096H156.645V37.928H160.341C161.704 37.928 162.74 37.6293 163.449 37.032C164.158 36.4347 164.513 35.5947 164.513 34.512Z" fill="#D15327" fill-opacity="0.67"/>
</svg>
